<?xml version="1.0" standalone="no"?>
<!DOCTYPE svg PUBLIC "-//W3C//DTD SVG 20010904//EN"
 "http://www.w3.org/TR/2001/REC-SVG-20010904/DTD/svg10.dtd">
<svg version="1.0" xmlns="http://www.w3.org/2000/svg"
 width="700.000000pt" height="700.000000pt" viewBox="0 0 700.000000 700.000000"
 preserveAspectRatio="xMidYMid meet">
<metadata>
Created by potrace 1.14, written by Peter Selinger 2001-2017
</metadata>
<g transform="translate(0.000000,700.000000) scale(0.100000,-0.100000)"
fill="#000000" stroke="none">
<path d="M3278 6996 c-1 -2 -42 -6 -89 -10 -47 -4 -95 -8 -105 -10 -10 -2 -48
-7 -84 -12 -36 -4 -67 -8 -70 -9 -3 -1 -25 -5 -50 -9 -25 -4 -101 -21 -170
-38 -69 -16 -135 -31 -147 -34 -40 -8 -264 -84 -367 -126 -134 -53 -352 -160
-449 -220 -43 -26 -81 -48 -84 -48 -9 0 -227 -152 -313 -219 -437 -339 -826
-832 -1035 -1311 -25 -58 -50 -114 -55 -125 -45 -93 -150 -427 -176 -560 -2
-11 -10 -54 -19 -95 -29 -150 -37 -204 -52 -375 -15 -167 -8 -600 11 -702 2
-10 7 -43 10 -74 4 -31 9 -67 11 -80 3 -13 7 -37 9 -54 21 -145 116 -479 193
-675 374 -946 1149 -1685 2113 -2018 178 -61 442 -128 577 -146 22 -3 52 -8
65 -10 179 -41 744 -41 985 -2 21 4 52 8 68 10 135 17 411 87 596 152 389 135
774 352 1089 615 103 86 282 259 370 358 36 41 70 79 75 85 25 26 146 188 197
261 274 395 475 884 562 1365 14 81 17 101 32 215 3 27 8 61 10 75 3 14 6 135
8 270 4 310 -8 468 -55 706 -5 28 -12 64 -15 80 -13 75 -67 271 -105 384 -349
1040 -1167 1860 -2204 2208 -168 57 -420 119 -555 137 -19 3 -46 7 -60 10 -13
2 -54 7 -90 11 -36 3 -76 8 -90 11 -27 5 -536 14 -542 9z m2396 -1901 c98 -41
158 -153 162 -300 2 -108 -20 -179 -79 -249 -74 -89 163 -80 -2257 -80 -2407
1 -2182 -7 -2256 77 -60 68 -84 148 -80 261 3 109 31 183 92 241 70 69 -114
63 2240 64 1897 1 2146 -1 2178 -14z m2 -1290 c212 -81 216 -515 5 -608 -43
-19 -79 -19 -2171 -19 -1170 0 -2142 3 -2161 7 -55 12 -114 68 -151 142 -28
58 -33 77 -35 158 -3 103 15 169 64 239 36 51 71 76 125 90 32 8 631 11 2162
9 1947 -1 2122 -2 2162 -18z m-1411 -1287 c43 -23 70 -56 99 -118 84 -184 28
-438 -110 -496 -51 -21 -2895 -21 -2947 1 -207 86 -187 581 26 624 15 3 675 6
1465 5 1298 0 1440 -2 1467 -16z"/>
</g>
</svg>
