<svg xmlns="http://www.w3.org/2000/svg" width="32" height="32" viewBox="-6.67 -6.67 45.33 45.33"><path d="M16 .394c8.833 0 15.999 7.166 15.999 15.999 0 7.062-4.583 13.062-10.937 15.187-.813.146-1.104-.354-1.104-.771 0-.521.021-2.25.021-4.396 0-1.5-.5-2.458-1.083-2.958 3.562-.396 7.312-1.75 7.312-7.896 0-1.75-.625-3.167-1.646-4.291.167-.417.708-2.042-.167-4.25-1.333-.417-4.396 1.646-4.396 1.646a15.032 15.032 0 00-8 0S8.937 6.602 7.603 7.018c-.875 2.208-.333 3.833-.167 4.25-1.021 1.125-1.646 2.542-1.646 4.291 0 6.125 3.729 7.5 7.291 7.896-.458.417-.875 1.125-1.021 2.146-.917.417-3.25 1.125-4.646-1.333-.875-1.521-2.458-1.646-2.458-1.646-1.562-.021-.104.979-.104.979 1.042.479 1.771 2.333 1.771 2.333.938 2.854 5.396 1.896 5.396 1.896 0 1.333.021 2.583.021 2.979 0 .417-.292.917-1.104.771C4.582 29.455-.001 23.455-.001 16.393-.001 7.56 7.165.394 15.998.394zM6.063 23.372c.042-.083-.021-.187-.146-.25-.125-.042-.229-.021-.271.042-.042.083.021.187.146.25.104.062.229.042.271-.042zm.646.709c.083-.062.062-.208-.042-.333-.104-.104-.25-.146-.333-.062-.083.062-.062.208.042.333.104.104.25.146.333.062zm.625.937c.104-.083.104-.25 0-.396-.083-.146-.25-.208-.354-.125-.104.062-.104.229 0 .375s.271.208.354.146zm.875.875c.083-.083.042-.271-.083-.396-.146-.146-.333-.167-.417-.062-.104.083-.062.271.083.396.146.146.333.167.417.062zm1.187.521c.042-.125-.083-.271-.271-.333-.167-.042-.354.021-.396.146s.083.271.271.312c.167.062.354 0 .396-.125zm1.313.104c0-.146-.167-.25-.354-.229-.187 0-.333.104-.333.229 0 .146.146.25.354.229.187 0 .333-.104.333-.229zm1.208-.208c-.021-.125-.187-.208-.375-.187-.187.042-.312.167-.292.312.021.125.187.208.375.167s.312-.167.292-.292z"/></svg>
