<svg xmlns="http://www.w3.org/2000/svg" width="32" height="32" viewBox="-6.67 -6.67 41.33 41.33"><path d="M9.917 24.5a1.75 1.75 0 10-3.501.001 1.75 1.75 0 003.501-.001zm0-21a1.75 1.75 0 10-3.501.001A1.75 1.75 0 009.917 3.5zm11.666 2.333a1.75 1.75 0 10-3.501.001 1.75 1.75 0 003.501-.001zm1.75 0a3.502 3.502 0 01-1.75 3.026c-.055 6.581-4.721 8.039-7.82 9.023-2.898.911-3.846 1.349-3.846 3.117v.474a3.502 3.502 0 011.75 3.026c0 1.932-1.568 3.5-3.5 3.5s-3.5-1.568-3.5-3.5c0-1.294.711-2.424 1.75-3.026V6.526A3.502 3.502 0 014.667 3.5c0-1.932 1.568-3.5 3.5-3.5s3.5 1.568 3.5 3.5a3.502 3.502 0 01-1.75 3.026v9.06c.93-.456 1.914-.766 2.807-1.039 3.391-1.075 5.323-1.878 5.359-5.687a3.502 3.502 0 01-1.75-3.026c0-1.932 1.568-3.5 3.5-3.5s3.5 1.568 3.5 3.5z"/></svg>
