<svg xmlns="http://www.w3.org/2000/svg" width="32" height="32" viewBox="-6.67 -6.67 41.33 41.33"><path d="M6.606 7.549c0-1.047-.84-1.887-1.887-1.887s-1.887.84-1.887 1.887.84 1.887 1.887 1.887 1.887-.84 1.887-1.887zm15.732 8.493c0 .501-.206.988-.546 1.327l-7.239 7.254c-.354.339-.84.546-1.342.546s-.988-.206-1.327-.546L1.342 14.066C.59 13.329 0 11.899 0 10.852V4.718a1.9 1.9 0 011.887-1.887h6.134c1.047 0 2.477.59 3.229 1.342L21.792 14.7c.339.354.546.84.546 1.342zm5.661 0c0 .501-.206.988-.546 1.327l-7.239 7.254c-.354.339-.84.546-1.342.546-.767 0-1.15-.354-1.651-.87l6.93-6.93c.339-.339.546-.826.546-1.327s-.206-.988-.546-1.342L13.609 4.173c-.752-.752-2.182-1.342-3.229-1.342h3.303c1.047 0 2.477.59 3.229 1.342L27.454 14.7c.339.354.546.84.546 1.342z"/></svg>
