<svg xmlns="http://www.w3.org/2000/svg" width="32" height="32" viewBox="-2.67 -2.67 33.33 33.33"><path d="M15.905 13.355c.189 1.444-1.564 2.578-2.784 1.839-1.375-.602-1.375-2.784-.034-3.403 1.151-.705 2.818.223 2.818 1.564zm1.907-.361c-.309-2.44-3.076-4.056-5.328-3.042-1.426.636-2.389 2.148-2.32 3.747.086 2.097 2.08 3.815 4.176 3.626s3.729-2.234 3.472-4.331zm4.108-9.315c-.756-.997-2.045-1.169-3.179-1.358-3.214-.516-6.513-.533-9.727.034-1.066.172-2.269.361-2.939 1.323 1.1 1.031 2.664 1.186 4.073 1.358 2.544.327 5.156.344 7.699.017 1.426-.172 3.008-.309 4.073-1.375zm.979 17.788c-.481 1.684-.206 3.953-1.994 4.932-3.076 1.701-6.806 1.89-10.191 1.289-1.787-.327-3.884-.894-4.864-2.578-.43-1.65-.705-3.334-.98-5.018l.103-.275.309-.155c5.121 3.386 12.288 3.386 17.427 0 .808.241.206 1.22.189 1.805zM26.01 4.951c-.584 3.764-1.255 7.51-1.908 11.257-.189 1.1-1.255 1.719-2.148 2.183-3.214 1.615-6.96 1.89-10.483 1.512-2.389-.258-4.829-.894-6.771-2.389-.911-.705-.911-1.908-1.083-2.922-.602-3.523-1.289-7.046-1.719-10.604.206-1.547 1.942-2.217 3.231-2.698C6.848.654 8.686.362 10.508.19c3.884-.378 7.854-.241 11.618.859 1.341.395 2.784.945 3.695 2.097.412.533.275 1.203.189 1.805z"/></svg>
