<?xml version="1.0" encoding="UTF-8"?>
<svg width="256px" height="256px" viewBox="0 0 256 256" version="1.1" xmlns="http://www.w3.org/2000/svg" xmlns:xlink="http://www.w3.org/1999/xlink">
    <title>terminal_logo</title>
    <g id="terminal_logo" stroke="none" stroke-width="1" fill="none" fill-rule="evenodd">
        <path d="M207.46122,3.76609065 L207.539942,3.75677983 L239.170198,36.7758543 L239.387524,36.9558032 C239.41062,36.9751078 239.433519,36.9943246 239.456376,37.0135958 C243.488647,40.4132971 245.964246,45.3014034 246.325311,50.552766 L246.332244,50.6535945 L246.360649,50.6533434 L246.361093,51.2603589 C246.365599,51.4024981 246.36857,51.5413145 246.371174,51.6802058 L246.371174,51.8894154 L246.371174,56.1592274 L246.361149,56.1373793 L246.360649,141.814215 L246.288216,141.814268 L246.288244,208.906956 C246.288244,218.293569 239.596541,226.342616 230.379037,228.059589 L230.098414,228.109769 L212.613295,231.108327 L212.666083,230.988238 L212.395628,231.119964 L80.4263891,253.851024 L80.26414,253.831693 L80.2331801,253.832485 L69.2253806,255.719539 L69.0675414,255.745943 C63.8575902,256.595561 58.5270589,255.294031 54.2971927,252.144239 L16.9608817,227.393989 L16.9610912,227.333863 L16.8984847,227.304878 C13.2740272,225.62686 10.0255064,219.702785 9.94488478,215.187587 L9.94488478,215.030631 L9.94488478,65.1035547 C9.94488478,45.4798438 23.8394215,29.6059152 43.6989134,25.9334989 L44.2934717,25.827547 L193.326264,0.23315759 C198.148715,-0.586808714 204.435217,0.804587254 207.337296,3.64219928 L207.46122,3.76609065 Z" id="bg" fill="#FFFFFF" fill-rule="nonzero"></path>
        <g id="ape" transform="translate(17.544917, 8.714077)" fill="#000000" fill-rule="nonzero">
            <path d="M34.7579595,32.2784202 L183.455083,6.81907729 L183.455083,6.81907729 C183.455083,1.19156221 174.31414,-1.04137383 168.761895,-0.0991522628 L31.2339224,23.4735963 C12.8744434,26.6164861 -0.544917485,41.1542334 -0.544917485,59.7448241 L-0.544917485,197.82976 C-0.544917485,202.697905 3.8477355,210.455099 8.65637574,209.631193 L8.65637574,209.631193 L8.65637574,63.182427 C8.65625386,47.9119052 19.6782958,34.8619209 34.7579595,32.2784202 Z" id="Path"></path>
            <path d="M45.487788,49.5814109 L202.455083,22.6868814 L202.455083,22.6868814 C202.455083,17.0599965 193.320606,14.9612158 187.766206,15.912663 L42.4659531,40.6847333 C28.5939636,43.0525885 18.4550825,53.7186997 18.4550825,67.775149 L18.4550825,213.822303 C18.4550825,218.693627 22.8477355,226.453734 27.6563757,225.631443 L27.6563757,225.631443 L27.6563757,70.702679 C27.656245,60.2646698 35.1865669,51.3450203 45.487788,49.5814109 Z" id="Path"></path>
            <path d="M146.040096,107.855973 C146.407991,107.923371 146.629588,107.363126 146.278905,107.25571 C142.656149,106.156791 138.936778,105.390344 135.168914,104.966287 C130.855295,104.481865 128.159551,104.639829 125.308905,105.431754 C121.466449,106.49959 115.821094,109.517753 114.052617,110.838331 L104.455083,117.691857 C108.257227,114.933963 112.389151,112.640909 116.759118,110.863605 C126.014157,107.099259 136.188496,106.054189 146.040096,107.855973 L146.040096,107.855973 Z" id="Path"></path>
            <path d="M87.4574223,226.098973 C87.8298894,229.295876 88.2039282,232.493504 88.5795385,235.691857 L92.4550825,235.078574 C91.007647,231.999108 89.5586398,228.920367 88.1080611,225.842351 C87.9619031,225.531359 87.4149894,225.744486 87.4574223,226.098973 Z" id="Path"></path>
            <path d="M100.398951,146.059463 C101.466349,147.075366 102.667984,147.964281 103.672594,147.989679 C114.838055,148.311382 123.07196,144.916572 125.258719,143.75675 C125.347124,143.715218 125.413374,143.638998 125.441028,143.547007 C125.468682,143.455016 125.455083,143.355878 125.403781,143.274196 C122.145197,139.238386 118.247968,135.737376 113.859426,132.903519 C109.553027,130.135184 107.022016,129.476963 104.287484,129.747871 C101.484556,130.001157 98.8381486,131.12479 96.7355883,132.954314 C93.7239233,135.610478 91.7406845,139.894202 92.6976622,143.513356 C93.6264935,147.039386 96.9217876,148.343129 98.2295127,148.859546 C99.6926108,149.423519 101.253368,149.705948 102.826037,149.691317 C103.168124,149.691317 103.334837,149.212996 103.042547,149.092357 C102.153863,148.739672 101.352827,148.204895 100.693405,147.524057 C100.394476,147.212231 100.12828,146.871895 99.8988109,146.508154 C99.7126116,146.207616 100.156459,145.826652 100.398951,146.059463 Z" id="Path"></path>
            <path d="M80.5009834,93.2974702 C74.1258429,93.4134 69.5048923,93.243799 62.5529431,94.4632088 L50.4550825,97.0866574 L50.4853272,97.1575034 C50.4853272,97.1575034 52.5786891,102.045877 56.3679119,105.759924 C59.1504198,108.486422 65.0805318,112.106008 73.8277171,113.464963 C74.1474463,113.51434 74.0891173,113.993087 73.7521055,114.078961 C70.1317829,114.999002 66.4199908,115.517411 62.6847234,115.624692 L61.9955774,115.637573 C61.6218399,115.637573 61.479258,116.19146 61.8357128,116.260159 C65.6225763,116.973435 69.4816586,117.234339 73.3308407,117.037318 C84.0050423,116.515634 93.3506396,112.692097 96.2130798,110.925241 C96.4291131,110.792137 97.0577697,110.392823 97.118259,110.474403 C97.2846046,110.689088 93.2858296,114.697254 88.3127448,117.943288 C86.3835681,119.203488 81.4169643,122.236985 74.8927609,123.847121 C72.786437,124.366658 71.3606177,124.529819 71.3584573,124.570609 C71.3584573,124.660776 78.1937486,124.252875 85.0268795,121.799028 C89.237141,120.258217 93.1940323,118.105096 96.7682852,115.410007 C96.8732797,115.299147 97.0488289,115.293861 97.1603855,115.3982 C97.2719421,115.502539 97.2772618,115.676992 97.1722674,115.787853 C95.1458757,118.881461 92.8775268,123.151542 91.5986102,128.340474 C91.33721,129.401017 91.1384594,130.416477 90.9872361,131.382558 C90.9289072,131.75611 91.4473869,131.811928 91.5834878,131.43623 C93.5911145,126.041072 96.2907685,120.92585 99.6156031,116.217222 C101.736777,113.206703 104.09074,110.364981 106.656126,107.71785 C106.693488,107.679274 106.738313,107.648604 106.787906,107.627682 C113.165592,104.938216 119.784747,102.853664 126.557107,101.401822 C129.912103,100.691216 132.7551,100.100832 136.278602,99.9484061 C142.764743,99.6598462 149.216463,101.034996 155.013003,103.941544 C155.051746,103.960365 155.084604,103.989308 155.108058,104.025271 C158.132523,108.640995 161.156988,113.256719 164.181453,117.872442 C164.35428,118.134358 164.805789,117.900351 164.760422,117.57403 C164.525896,115.95628 164.143373,114.363159 163.617606,112.814468 C162.599289,109.811478 161.010835,107.03045 158.938327,104.622095 C158.743897,104.396676 159.031221,104.003802 159.322866,104.096117 C161.626442,104.810012 163.986776,105.328544 166.378511,105.646141 C170.377718,106.167514 174.427081,106.186267 178.431004,105.701959 C178.822025,105.656876 178.886835,105.077227 178.500135,105.079373 C175.072005,105.117872 171.655026,104.684385 168.346574,103.791265 C165.446231,103.00046 162.669314,101.816439 160.094104,100.27258 C159.819742,100.107273 160.050898,99.6285257 160.381429,99.6864906 C165.115443,100.36431 169.92345,100.354909 174.654744,99.6585816 C183.296073,98.4155565 190.36684,95.2339273 195.030997,92.6340941 C195.376651,92.4408777 195.247031,91.9492495 194.873293,92.0673261 C192.051182,92.983016 189.157095,93.6630643 186.221163,94.1003914 C184.994094,94.2807267 183.824634,94.4116844 182.712783,94.4932647 C182.332565,94.5233206 182.339046,93.9672869 182.712783,93.8771192 C185.514526,93.2084434 188.199961,92.1273699 190.680088,90.6697279 C201.265716,84.4653364 204.73521,73.662396 205.439478,71.1334087 C205.468272,71.0547069 205.456775,70.9670081 205.408652,70.8982639 C205.36053,70.8295197 205.281787,70.7883088 205.197521,70.7877661 C197.59766,70.8027392 190.05951,72.1441466 182.926656,74.750848 C179.326079,76.0541555 175.8355,77.6399502 172.48793,79.4932359 C172.148758,79.6800117 171.90248,79.2656699 172.196286,79.0059013 C175.302099,76.2466349 178.676615,73.8014833 182.269915,71.7066172 C188.737599,67.9286961 195.874811,65.4194439 203.294268,64.3150186 C203.685288,64.2570537 203.726335,63.6709641 203.346116,63.6918573 C197.71362,63.9016689 192.133547,64.8487348 186.750444,66.5090976 C182.397374,67.8508777 174.82541,71.3802963 159.67716,78.4412802 C158.724454,78.8856778 157.454178,79.9032839 151.923728,82.4472991 C151.35124,82.7092146 142.923784,87.5331826 137.335004,90.0471419 C143.783596,86.7259677 146.840466,83.5765413 148.568732,80.9101557 C148.784765,80.5881285 148.413188,80.3025977 148.136665,80.5645131 C139.359235,88.6216347 131.273112,89.9097436 126.492297,90.4979801 C119.87952,91.3116356 111.525515,90.1845402 108.094907,89.6392408 C107.760056,89.5855695 107.5289,90.0686104 107.811904,90.2274772 C109.700034,91.3009013 113.813307,93.0870791 121.149795,93.851357 C121.482486,93.8857066 121.439279,94.375188 121.095787,94.4653557 C119.010467,95.0104251 116.879479,95.365409 114.729288,95.5258987 C103.871458,96.313792 96.47448,91.446887 94.2277345,90.158778 C88.1269562,86.6637091 76.3229008,84.4803644 51.1312665,90.6504063 C50.7424067,90.7448676 50.744567,91.3116356 51.1312665,91.2665517 C54.0940657,90.9297741 57.0762411,90.790633 60.0577594,90.8500632 C68.1676466,91.0196642 75.7892988,91.2901671 80.6824513,92.6662968 C81.0108218,92.762905 80.8574382,93.2802954 80.5009834,93.2974702 Z" id="Path"></path>
            <path d="M154.200677,137.684903 C153.549416,138.591576 152.761454,139.39591 151.86378,140.070357 C151.56734,140.29532 151.733952,140.707044 152.080159,140.596685 C153.730527,140.028837 155.280423,139.211827 156.673894,138.175152 C157.972171,137.205266 161.274121,134.758265 162.204552,130.902064 C163.120654,127.296127 161.468136,123.534192 158.166912,121.710426 C155.087833,120.050795 151.638745,120.86151 150.619598,121.103451 C147.886726,121.778339 145.357251,123.312755 141.053464,127.578558 C136.668846,131.937765 132.798677,136.767402 129.516113,141.976174 C129.457435,142.048232 129.439687,142.144423 129.468897,142.232081 C129.498106,142.319739 129.570347,142.387083 129.661088,142.411243 C131.84652,142.822967 140.075429,143.383252 151.234116,139.200218 C152.238116,138.822451 153.439022,137.521487 154.505772,136.131387 C154.750281,135.815166 155.193859,136.042251 155.0121,136.392428 C154.774268,136.842166 154.503064,137.274154 154.200677,137.684903 Z" id="Path"></path>
            <path d="M199.392517,32.9521618 L51.4243329,58.4231439 C42.7763487,59.9133969 36.4550825,67.4376289 36.4550825,76.2422337 L36.4550825,79.6918573 C43.7123131,72.1718942 52.422283,68.7936422 55.577788,67.70793 C55.6741923,67.6670438 55.7856171,67.687946 55.8607894,67.7610183 C55.9359616,67.8340905 55.9603185,67.9451769 55.922652,68.0431598 C55.149582,70.8100679 54.3743566,73.576976 53.5969758,76.3438841 C53.5107598,76.6509979 53.8513129,76.821857 54.0862515,76.5882775 C59.2700909,71.4468145 65.6856468,67.7308933 72.7153704,65.7982011 C75.7846595,64.9612078 87.5876279,62.554041 98.1490861,67.9047423 C103.554828,70.6406507 105.692985,72.7580058 107.035799,74.9770113 C107.195298,75.2430324 107.645777,75.0267551 107.615601,74.6980135 C107.464723,73.0845846 106.471084,70.7098594 101.690408,67.087214 C97.3796084,63.8192634 91.396219,62.9779446 88.0445726,62.7335512 C87.6997087,62.7097607 87.7428167,62.1993462 88.0963022,62.1128352 C94.5754335,60.5167085 100.957572,58.7086299 110.148196,60.635661 C117.411893,62.1496024 123.067661,66.8666111 128.288039,69.0704772 C128.461406,69.1262442 128.648508,69.0398829 128.719119,68.871502 C130.012359,66.0058273 138.064932,58.8556985 145.746776,54.9172882 C155.797404,49.765562 163.32406,48.792314 166.639065,48.6625476 C166.977462,48.649571 166.999016,49.1318694 166.664929,49.2681242 C163.813336,50.4295335 158.534762,52.7588404 155.191737,56.675623 C151.424099,61.0898434 150.525297,63.0860833 150.684797,64.8833479 C150.710661,65.1536946 151.049059,65.2077639 151.227957,64.9676961 C153.700201,61.6370251 163.729275,50.4900911 176.433201,47.5811609 C182.877845,46.1061495 188.328851,47.3410931 190.792473,47.8990886 C195.798502,49.0078592 200.463127,51.3147604 204.388734,54.623151 C204.591341,54.7940101 204.936205,54.57557 204.918962,54.2900839 C204.800978,52.296448 204.346938,50.337321 203.576148,48.4960141 C202.544109,46.0553145 200.923492,43.9103871 198.860134,42.2542501 C198.644594,42.0747399 198.83858,41.6681385 199.142491,41.6789524 C202.539401,41.8152071 209.956131,42.7257347 215.771399,48.4354564 C217.7362,50.3729617 219.324472,52.6604745 220.455083,55.1811466 L220.455083,50.7712517 C220.455083,45.4420153 218.112141,40.3841919 214.051683,36.9490142 C209.991226,33.5138365 204.627154,32.0513111 199.392517,32.9521618 Z" id="Path"></path>
            <path d="M210.485775,107.857935 C210.19909,108.073318 209.877917,107.801935 210.067603,107.493937 C211.202847,105.627285 212.340246,103.760632 213.479801,101.893979 C213.695353,101.551521 213.285803,101.27583 213.014207,101.573059 C208.571668,106.425638 198.356631,115.799106 185.876136,115.743106 C181.6072,115.741189 177.42148,114.562926 173.779325,112.337901 C173.529284,112.184979 173.180089,112.514515 173.302954,112.785898 C174.133161,114.643519 175.41236,116.265869 177.025547,117.507093 C178.913169,118.916952 181.13751,119.808068 183.477036,120.091689 C183.808987,120.136919 183.744321,120.634454 183.397282,120.709838 C181.047793,121.228028 178.627589,121.345994 176.23878,121.058758 C174.909866,120.893039 173.603502,120.58025 172.343745,120.12615 C172.046282,120.016305 171.742353,120.427686 171.951439,120.655992 C174.482027,123.427971 176.745329,127.39748 176.434933,132.601133 C176.294161,134.702634 175.797823,136.765077 174.96702,138.700779 C174.90251,138.830131 174.946247,138.987277 175.06833,139.064777 C186.173599,145.155808 190.394119,153.383438 191.974119,157.191409 C195.185853,164.934428 195.604025,173.991283 195.515648,174.027898 C195.498404,174.027898 195.418649,173.698362 195.144898,172.950983 C195.144898,172.950983 194.959522,172.442679 194.728881,171.893453 C194.468063,171.275303 192.409535,168.343941 189.100803,164.385201 C188.885251,164.115973 188.402413,164.490739 188.572699,164.800891 C192.883751,172.586986 193.082059,176.672801 192.170272,178.986015 C192.088362,179.201398 191.640013,180.302005 191.170108,181.45215 C191.102812,181.623665 190.916701,181.716647 190.739003,181.667533 C190.269098,181.475842 189.758238,181.273382 189.208579,181.064461 C186.671587,180.115955 184.080381,179.319067 181.448686,178.678017 C181.338869,178.650472 181.261687,178.552076 181.261155,178.438942 C181.215889,176.8688 181.125357,175.027275 180.955071,172.985444 C180.448522,166.907336 179.911796,161.001535 177.195834,154.585275 C176.764728,153.566514 176.21938,152.39483 175.529612,151.124071 C175.35717,150.805304 174.831222,151.124071 174.960553,151.464376 C175.516679,152.950518 176.038316,154.537891 176.497443,156.226494 C178.652969,164.152588 178.814634,171.602686 178.331796,177.536487 C178.322656,177.63661 178.273182,177.728722 178.194732,177.791676 C178.116281,177.854631 178.015593,177.883022 177.915779,177.870331 C176.312068,177.538641 174.563937,177.224182 172.684318,176.94203 C172.612676,176.93239 172.548431,176.892992 172.507391,176.83353 C172.46635,176.774068 172.452325,176.700063 172.468765,176.629725 C172.615341,175.757424 172.736051,174.850661 172.820116,173.911591 C173.211903,169.799277 172.846623,165.650037 171.742353,161.669222 C171.645355,161.320301 171.095695,161.5163 171.134495,161.884605 C171.231494,162.864598 171.298315,163.894128 171.326337,164.975351 C171.40876,168.771787 171.022157,172.563884 170.175286,176.265727 C170.133742,176.4427 169.971089,176.564367 169.789447,176.554341 C156.800248,175.022968 144.722836,176.16019 142.509111,176.37988 C125.935273,178.021099 113.243536,182.320143 106.404053,184.680741 C99.7634507,186.984377 93.2521867,189.64464 86.8986991,192.649912 C86.8304329,192.690439 86.7474082,192.697684 86.6731448,192.669595 C86.5988814,192.641506 86.5414688,192.581143 86.517171,192.505605 C85.3887495,188.498804 84.8742097,184.344332 84.9910587,180.183544 C85.0190805,179.093706 85.0859018,178.029714 85.1829005,177.026029 C85.2195445,176.640494 84.6741964,176.636186 84.5771977,177.026029 C83.4990865,181.140047 83.134556,185.408255 83.4994348,189.645319 C83.6279984,191.002516 83.843999,192.350018 84.1460926,193.679443 C84.1730991,193.846863 84.084886,194.011692 83.93054,194.082209 C81.9366785,195.05574 80.1303479,195.968964 78.5287921,196.789573 C78.4531838,196.839594 78.3570006,196.846786 78.2747839,196.808566 C78.1925671,196.770345 78.1361181,196.692199 78.1257088,196.60219 C77.3189347,188.780117 77.8953377,180.877216 79.8285742,173.254673 C80.2898568,171.402379 80.8093385,169.631931 81.3654642,167.94979 C81.4947957,167.559947 80.9666919,167.430717 80.7942498,167.809791 C80.1044815,169.317472 79.561289,170.687308 79.1280283,171.861145 C76.4142212,179.231551 75.8774953,185.32689 75.3687912,191.583766 C75.1532386,194.258823 75.064862,196.569882 75.0346847,198.383407 C75.0266233,198.522671 74.9443074,198.64687 74.8191321,198.708635 L74.7027337,198.768943 C72.4717644,199.947088 69.5294716,201.499999 66.1000299,203.507369 C66.028479,203.560362 65.935212,203.574263 65.8512982,203.544441 C65.7673844,203.514619 65.7038493,203.444992 65.6818579,203.358754 C65.522349,202.645837 64.604095,198.471714 64.6967826,194.993279 C64.8347362,190.235468 66.9191297,185.716733 68.9345464,182.412758 C66.1884065,186.813751 63.4393925,191.221923 60.6875044,195.637274 C60.5042847,195.934502 60.0861127,195.852657 60.1270677,195.520967 C60.7402734,190.489731 62.1549238,185.588886 64.31741,181.004153 C65.9491431,177.545102 67.7123633,174.872199 70.8076984,170.181158 C73.7887907,165.658115 76.4831981,161.996604 78.474904,159.377547 C78.5685656,159.234884 78.756178,159.188017 78.9060092,159.269855 C80.6684566,160.441374 82.6779074,161.190271 84.7776616,161.458147 C86.9073212,161.740298 90.4747165,162.214141 93.8308703,159.864312 C95.2834273,158.823348 96.469521,157.454436 97.2926449,155.868958 C97.4607759,155.548037 97.1094252,155.293885 96.8399845,155.54373 C95.9701714,156.346229 95.005206,157.039184 93.9666685,157.607099 C92.6972372,158.302794 91.3225892,158.786598 89.8970356,159.039396 C86.9308398,159.517243 83.9047017,158.663783 81.6262828,156.706798 C78.0416433,153.325285 79.1215617,147.58102 79.6604432,144.71858 C80.2650937,141.664009 81.4205683,138.744754 83.0704852,136.10326 C83.2580159,135.797417 82.9454647,135.519573 82.6609352,135.737109 C82.1493571,136.129106 81.6076016,136.514642 81.0356687,136.893716 C78.0347594,138.8937 74.6632857,140.272719 71.1202497,140.949378 C70.7839876,141.011839 70.6891445,140.572458 70.9930737,140.382921 C72.7481263,139.293169 74.3996808,138.045205 75.9270724,136.654641 C77.6433681,135.093003 79.1922074,133.356982 80.5485199,131.47468 C80.7640725,131.179605 80.4709209,130.865146 80.1713028,131.067606 C76.9897467,133.221436 72.1074805,135.870647 66.0914078,136.870024 C60.2111332,137.845709 55.8224825,136.811871 52.5115948,136.034338 C49.4892033,135.328404 46.5657082,134.251946 43.8075813,132.829439 C43.5058077,132.672209 43.1609235,133.126667 43.3980314,133.359281 L48.2285649,138.028784 C48.4441174,138.229091 48.196232,138.634011 47.8966139,138.584473 C44.5257441,138.035533 41.2897885,136.85224 38.3605674,135.097422 C37.6880433,134.68604 37.0672519,134.23589 36.4550825,133.785739 L36.4550825,222.687224 C36.4550825,227.994423 38.7981617,233.031332 42.8588568,236.452304 C46.919552,239.873277 52.2839378,241.329755 57.5188814,240.432629 L67.7921177,238.67295 C65.7906457,235.258463 64.4762889,231.486044 63.9229488,227.567803 C62.6468775,218.750023 65.1063325,210.983312 66.6777109,206.964266 C66.6777109,206.940573 66.6604666,206.91042 66.6518445,206.886728 C81.2512213,196.996341 94.2253316,191.228384 103.263452,187.846871 C133.820186,176.410034 160.078803,176.98726 170.209774,179.138937 L171.856596,179.55678 C171.857304,179.551779 171.857304,179.546704 171.856596,179.541703 C172.115259,179.614933 172.358834,179.690317 172.585164,179.757086 C173.350376,180.013392 179.98724,182.298605 189.281867,185.165353 C189.562086,185.25366 189.827215,185.335505 190.079412,185.410889 C190.167267,185.437918 190.231278,185.513661 190.243232,185.604734 C193.066971,201.347077 192.165961,207.621184 192.165961,207.621184 C191.638684,211.144056 190.64791,214.58188 189.219357,217.845415 L205.4828,215.058359 C214.133084,213.576835 220.455083,206.082482 220.455083,197.312954 L220.455083,97.6918573 C220.401194,97.7629336 220.349462,97.8383177 220.295574,97.9072403 C217.472754,101.636403 214.174978,104.981544 210.485775,107.857935 Z" id="Path"></path>
            <path d="M176.303083,216.050816 C176.153439,217.567098 175.88567,219.064412 175.503083,220.524277 L175.455083,220.691857 L177.455083,220.293854 C177.374366,218.80807 177.173478,217.334448 176.855083,215.892545 C176.789083,215.545747 176.339083,215.680742 176.303083,216.050816 Z" id="Path"></path>
            <path d="M103.831979,194.666511 C109.405651,192.657903 115.103735,190.982749 120.893448,189.650686 C131.75616,187.134023 142.908792,185.955569 154.081959,186.143789 C154.467492,186.143789 154.61125,185.589958 154.236608,185.53562 C150.014694,184.919925 145.746942,184.640315 141.47699,184.699649 C136.861485,184.760257 127.915812,184.952531 116.565459,188.67051 C112.110986,190.135446 107.793727,191.959496 103.659905,194.12313 C103.298332,194.315403 103.452981,194.808626 103.831979,194.666511 Z" id="Path"></path>
            <path d="M153.468162,195.740606 C153.193601,195.551376 152.802296,195.95564 153.003353,196.224433 C154.825276,198.647561 155.689225,201.65176 155.431172,204.666666 C155.078781,209.653303 152.20561,213.397044 150.705249,215.046355 C150.489058,215.293644 150.119373,215.14312 150.195039,214.831321 C150.754973,212.562713 151.505153,207.67284 148.921678,203.157127 C146.930564,199.677878 143.893088,198.050071 142.061955,197.325406 C141.9262,197.287872 141.780922,197.332827 141.690534,197.440341 C141.600147,197.547855 141.581377,197.698031 141.642546,197.824285 C142.924838,199.752316 143.852991,201.891375 144.383841,204.141983 C144.959368,206.607468 145.114299,209.151617 144.842164,211.668171 C144.832333,211.781025 144.768918,211.882426 144.671489,211.94108 C144.57406,211.999735 144.45433,212.008592 144.34925,211.964918 C138.38776,208.615712 131.226622,208.115739 124.853197,210.603753 C119.632198,212.599268 116.073704,215.943046 114.272838,217.893404 C114.21785,217.966643 114.132194,218.010829 114.04033,218.013343 C113.948467,218.015858 113.860497,217.976425 113.801543,217.906307 C113.091362,216.872702 112.558768,215.728917 112.225514,214.521672 C110.928372,209.848984 112.796257,205.165545 114.052323,202.714157 C114.214466,202.393757 113.8664,202.148618 113.598324,202.393757 C111.784486,204.038767 108.993467,207.055693 107.294211,211.40798 C105.220944,216.721469 105.936535,221.045802 106.472687,223.054219 C106.54403,223.320862 106.224068,223.593955 105.990582,223.462784 C102.971503,221.792406 100.849123,218.880102 100.192355,215.506528 C99.4119076,211.472491 100.771745,207.784658 102.038621,205.399932 C102.222383,205.058028 101.809459,204.812889 101.552193,205.111786 C98.9677293,208.088776 96.847066,211.434693 95.2610513,215.037754 C91.8365949,222.912297 92.1327758,229.933156 93.099147,234.691857 L162.608694,222.830584 C163.661541,218.166498 164.353351,210.810186 160.764589,203.929099 C159.044213,200.645856 156.538498,197.833791 153.468162,195.740606 L153.468162,195.740606 Z" id="Path"></path>
            <path d="M165.891174,206.78119 C165.687982,206.545825 165.246261,206.815425 165.323562,207.127818 C165.767987,208.904919 165.973616,210.73019 165.935346,212.558328 C165.858045,216.488922 164.716196,219.983021 163.455083,222.691857 L170.343722,221.544988 C170.483588,220.185736 170.491722,218.81678 170.368016,217.456058 C170.039055,213.537644 168.476384,209.811511 165.891174,206.78119 L165.891174,206.78119 Z" id="Path"></path>
        </g>
    </g>
</svg>