<svg width="443" height="18" viewBox="0 0 443 18" fill="none" xmlns="http://www.w3.org/2000/svg">
<path d="M124.349 0.0136719V1.13901V2.26166V3.38432V4.50965V5.63499V6.75765V7.88298V9.00564V10.131V11.2536V12.379V13.5016L123.223 12.379L122.099 11.2536L120.972 10.131L119.848 9.00564L118.721 7.88298L117.594 6.75765L116.47 5.63499L115.343 4.50965L114.219 3.38432L113.093 2.26166L111.968 1.13901L110.842 0.0136719H109.718H108.591V1.13901V2.26166V3.38432V4.50965V5.63499V6.75765V7.88298V9.00564V10.131V11.2536V12.379V13.5016V14.627V15.7523V16.8749V17.9976H109.718H110.842V16.8749V15.7523V14.627V13.5016V12.379V11.2536V10.131V9.00564V7.88298V6.75765V5.63499V4.50965V3.38432L111.968 4.50965L113.093 5.63499L114.219 6.75765L115.343 7.88298L116.47 9.00564L117.594 10.131L118.721 11.2536L119.848 12.379L120.972 13.5016L122.099 14.627L123.223 15.7523L124.349 16.8749L125.473 17.9976H126.6V16.8749V15.7523V14.627V13.5016V12.379V11.2536V10.131V9.00564V7.88298V6.75765V5.63499V4.50965V3.38432V2.26166V1.13901V0.0136719H125.473H124.349Z" fill="white"/>
<path d="M160.588 6.75764H158.337V0.0136719H144.832V18.0003H162.844V6.74693H160.593L160.588 6.75764ZM147.083 5.62695V2.26167H156.086V6.75764H147.083V5.62695ZM160.588 10.1229V15.7496H147.083V9.00832H160.588V10.1229Z" fill="white"/>
<path d="M197.937 6.75764H194.562V0.0136719H181.054V18.0003H199.061V6.74693L197.937 6.75764ZM183.305 5.62695V2.26167H192.311V6.75764H183.305V5.62695ZM196.813 10.1229V15.7496H183.305V9.00832H196.813V10.1229Z" fill="white"/>
<path d="M88.2609 0.0136719H88.2555H87.1341H86.01H84.8833H83.7592H82.6324H81.5084H80.3816H79.2575H78.1308H77.0067H75.8799H74.7558H73.6291H72.5023V1.13901V2.26166V3.38432V4.50965V5.63499V6.75765V7.88298V9.00564V10.131V11.2536V12.379V13.5016V14.627V15.7523V16.8749V17.9976H73.6291H74.7558H75.8799H77.0067H78.1308H79.2575H80.3816H81.5084H82.6324H83.7592H84.8833H86.01H87.1341H88.2555H88.2609H89.3823H90.5063V16.8749V15.7523H89.3823H88.2609H88.2555H87.1341H86.01H84.8833H83.7592H82.6324H81.5084H80.3816H79.2575H78.1308H77.0067H75.8799H74.7558V14.627V13.5016V12.379V11.2536H75.8799H77.0067H78.1308H79.2575H80.3816H81.5084H82.6324H83.7592H84.8779H84.8833H86.0047H87.1287H88.2555V10.131V9.00564H87.1287H86.0047H84.8833H84.8779H83.7592H82.6324H81.5084H80.3816H79.2575H78.1308H77.0067H75.8799H74.7558V7.88298V6.75765V5.63499V4.50965V3.38432V2.26166H75.8799H77.0067H78.1308H79.2575H80.3816H81.5084H82.6324H83.7592H84.8833H86.01H87.1341H88.2555H88.2609H89.3823H90.5063V1.13901V0.0136719H89.3823H88.2609Z" fill="white"/>
<path d="M15.7559 0.0136719H0V18.0003H18.0094V0.0136719H15.7586H15.7559ZM15.7559 3.387V15.7523H2.24816V2.26167H15.7559V3.387Z" fill="white"/>
<path d="M52.0292 0.0133936H36.2733V18H38.5242V11.2534H54.28V0H52.0292V0.0133936ZM52.0292 3.38673V9.0134H38.5242V2.26139H52.0292V3.38673Z" fill="white"/>
<path d="M381.767 0V1.12298V2.24329V3.36359V4.48657V5.60956V6.72986V7.85284V8.97315V10.0961V11.2164V12.3394V13.4597L380.643 12.3394L379.521 11.2164L378.397 10.0961L377.275 8.97315L376.151 7.85284L375.026 6.72986L373.905 5.60956L372.78 4.48657L371.658 3.36359L370.534 2.24329L369.412 1.12298L368.288 0H367.166H366.042V1.12298V2.24329V3.36359V4.48657V5.60956V6.72986V7.85284V8.97315V10.0961V11.2164V12.3394V13.4597V14.5827V15.7057V16.826V17.9463H367.166H368.288V16.826V15.7057V14.5827V13.4597V12.3394V11.2164V10.0961V8.97315V7.85284V6.72986V5.60956V4.48657V3.36359L369.412 4.48657L370.534 5.60956L371.658 6.72986L372.78 7.85284L373.905 8.97315L375.026 10.0961L376.151 11.2164L377.275 12.3394L378.397 13.4597L379.521 14.5827L380.643 15.7057L381.767 16.826L382.889 17.9463H384.013V16.826V15.7057V14.5827V13.4597V12.3394V11.2164V10.0961V8.97315V7.85284V6.72986V5.60956V4.48657V3.36359V2.24329V1.12298V0H382.889H381.767Z" fill="white"/>
<path d="M321.481 17.9522V0H323.762L330.986 7.30019L337.146 0H339.427V17.9522H337.146V3.49801L332.127 9.5815H329.846L323.762 3.49801V17.9522H321.481Z" fill="white"/>
<path d="M276.899 0H276.894H275.775H274.653H273.529H272.407H271.282H270.161H269.036H267.915H266.79H265.669H264.544H263.422H262.298H261.174V1.12298V2.24329V3.36359V4.48657V5.60956V6.72986V7.85284V8.97315V10.0961V11.2164V12.3394V13.4597V14.5827V15.7057V16.826V17.9463H262.298H263.422H264.544H265.669H266.79H267.915H269.036H270.161H271.282H272.407H273.529H274.653H275.775H276.894H276.899H278.018H279.14V16.826V15.7057H278.018H276.899H276.894H275.775H274.653H273.529H272.407H271.282H270.161H269.036H267.915H266.79H265.669H264.544H263.422V14.5827V13.4597V12.3394V11.2164H264.544H265.669H266.79H267.915H269.036H270.161H271.282H272.407H273.523H273.529H274.648H275.769H276.894V10.0961V8.97315H275.769H274.648H273.529H273.523H272.407H271.282H270.161H269.036H267.915H266.79H265.669H264.544H263.422V7.85284V6.72986V5.60956V4.48657V3.36359V2.24329H264.544H265.669H266.79H267.915H269.036H270.161H271.282H272.407H273.529H274.653H275.775H276.894H276.899H278.018H279.14V1.12298V0H278.018H276.899Z" fill="white"/>
<path fill-rule="evenodd" clip-rule="evenodd" d="M231.061 -6.4373e-05L231.061 2.28124L238.893 2.28124V17.9462H241.175V2.28124L249.007 2.28124V-6.51575e-05L241.175 -6.4463e-05H238.893L231.061 -6.4373e-05Z" fill="white"/>
<rect x="351.594" width="2.28129" height="17.9463" fill="white"/>
<path d="M426.351 0H428.633V15.9692H442.32V17.9463H426.351V0Z" fill="white"/>
<path d="M307.065 18L302.952 10.9179H305.201L309.314 18H307.065Z" fill="white"/>
<path d="M307.06 0.0133919H291.307V17.9978H293.557V11.252H309.311V0H307.06V0.0133919ZM307.06 9.01229H293.557V2.26111H307.06V9.01229Z" fill="white"/>
<path d="M411.934 0.0133919H396.18V17.9978H398.43V11.252H411.934V17.9978H414.184V0H411.934V0.0133919ZM411.934 9.01229H398.43V2.26111H411.934V9.01229Z" fill="white"/>
</svg>
