<svg width="444" height="19" viewBox="0 0 444 19" fill="none" xmlns="http://www.w3.org/2000/svg">
<path d="M125.279 0.891602V2.01694V3.13959V4.26225V5.38758V6.51292V7.63557V8.76091V9.88357V11.0089V12.1316V13.2569V14.3796L124.152 13.2569L123.028 12.1316L121.901 11.0089L120.777 9.88357L119.65 8.76091L118.523 7.63557L117.399 6.51292L116.273 5.38758L115.148 4.26225L114.022 3.13959L112.898 2.01694L111.771 0.891602H110.647H109.52V2.01694V3.13959V4.26225V5.38758V6.51292V7.63557V8.76091V9.88357V11.0089V12.1316V13.2569V14.3796V15.5049V16.6302V17.7529V18.8755H110.647H111.771V17.7529V16.6302V15.5049V14.3796V13.2569V12.1316V11.0089V9.88357V8.76091V7.63557V6.51292V5.38758V4.26225L112.898 5.38758L114.022 6.51292L115.148 7.63557L116.273 8.76091L117.399 9.88357L118.523 11.0089L119.65 12.1316L120.777 13.2569L121.901 14.3796L123.028 15.5049L124.152 16.6302L125.279 17.7529L126.403 18.8755H127.529V17.7529V16.6302V15.5049V14.3796V13.2569V12.1316V11.0089V9.88357V8.76091V7.63557V6.51292V5.38758V4.26225V3.13959V2.01694V0.891602H126.403H125.279Z" fill="black"/>
<path d="M161.517 7.63557H159.266V0.891602H145.761V18.8782H163.773V7.62486H161.522L161.517 7.63557ZM148.012 6.50488V3.1396H157.015V7.63557H148.012V6.50488ZM161.517 11.0009V16.6275H148.012V9.88625H161.517V11.0009Z" fill="black"/>
<path d="M198.866 7.63557H195.491V0.891602H181.983V18.8782H199.99V7.62486L198.866 7.63557ZM184.234 6.50488V3.1396H193.24V7.63557H184.234V6.50488ZM197.742 11.0009V16.6275H184.234V9.88625H197.742V11.0009Z" fill="black"/>
<path d="M89.1901 0.891602H89.1847H88.0633H86.9392H85.8125H84.6884H83.5616H82.4376H81.3108H80.1867H79.06H77.9359H76.8091H75.685H74.5583H73.4315V2.01694V3.13959V4.26225V5.38758V6.51292V7.63557V8.76091V9.88357V11.0089V12.1316V13.2569V14.3796V15.5049V16.6302V17.7529V18.8755H74.5583H75.685H76.8091H77.9359H79.06H80.1867H81.3108H82.4376H83.5616H84.6884H85.8125H86.9392H88.0633H89.1847H89.1901H90.3115H91.4355V17.7529V16.6302H90.3115H89.1901H89.1847H88.0633H86.9392H85.8125H84.6884H83.5616H82.4376H81.3108H80.1867H79.06H77.9359H76.8091H75.685V15.5049V14.3796V13.2569V12.1316H76.8091H77.9359H79.06H80.1867H81.3108H82.4376H83.5616H84.6884H85.8071H85.8125H86.9339H88.0579H89.1847V11.0089V9.88357H88.0579H86.9339H85.8125H85.8071H84.6884H83.5616H82.4376H81.3108H80.1867H79.06H77.9359H76.8091H75.685V8.76091V7.63557V6.51292V5.38758V4.26225V3.13959H76.8091H77.9359H79.06H80.1867H81.3108H82.4376H83.5616H84.6884H85.8125H86.9392H88.0633H89.1847H89.1901H90.3115H91.4355V2.01694V0.891602H90.3115H89.1901Z" fill="black"/>
<path d="M16.6851 0.891602H0.929199V18.8782H18.9386V0.891602H16.6878H16.6851ZM16.6851 4.26493V16.6302H3.17736V3.1396H16.6851V4.26493Z" fill="black"/>
<path d="M52.9584 0.891323H37.2025V18.8779H39.4534V12.1313H55.2092V0.87793H52.9584V0.891323ZM52.9584 4.26466V9.89133H39.4534V3.13932H52.9584V4.26466Z" fill="black"/>
<path d="M382.696 0.87793V2.00091V3.12122V4.24152V5.3645V6.48749V7.60779V8.73077V9.85108V10.9741V12.0944V13.2173V14.3377L381.572 13.2173L380.45 12.0944L379.326 10.9741L378.204 9.85108L377.08 8.73077L375.955 7.60779L374.834 6.48749L373.709 5.3645L372.588 4.24152L371.463 3.12122L370.342 2.00091L369.217 0.87793H368.095H366.971V2.00091V3.12122V4.24152V5.3645V6.48749V7.60779V8.73077V9.85108V10.9741V12.0944V13.2173V14.3377V15.4606V16.5836V17.7039V18.8242H368.095H369.217V17.7039V16.5836V15.4606V14.3377V13.2173V12.0944V10.9741V9.85108V8.73077V7.60779V6.48749V5.3645V4.24152L370.342 5.3645L371.463 6.48749L372.588 7.60779L373.709 8.73077L374.834 9.85108L375.955 10.9741L377.08 12.0944L378.204 13.2173L379.326 14.3377L380.45 15.4606L381.572 16.5836L382.696 17.7039L383.818 18.8242H384.942V17.7039V16.5836V15.4606V14.3377V13.2173V12.0944V10.9741V9.85108V8.73077V7.60779V6.48749V5.3645V4.24152V3.12122V2.00091V0.87793H383.818H382.696Z" fill="black"/>
<path d="M322.41 18.8301V0.87793H324.691L331.916 8.17812L338.075 0.87793H340.356V18.8301H338.075V4.37594L333.056 10.4594H330.775L324.691 4.37594V18.8301H322.41Z" fill="black"/>
<path d="M277.828 0.87793H277.823H276.704H275.582H274.458H273.336H272.212H271.09H269.966H268.844H267.719H266.598H265.473H264.352H263.227H262.103V2.00091V3.12122V4.24152V5.3645V6.48749V7.60779V8.73077V9.85108V10.9741V12.0944V13.2173V14.3377V15.4606V16.5836V17.7039V18.8242H263.227H264.352H265.473H266.598H267.719H268.844H269.966H271.09H272.212H273.336H274.458H275.582H276.704H277.823H277.828H278.947H280.069V17.7039V16.5836H278.947H277.828H277.823H276.704H275.582H274.458H273.336H272.212H271.09H269.966H268.844H267.719H266.598H265.473H264.352V15.4606V14.3377V13.2173V12.0944H265.473H266.598H267.719H268.844H269.966H271.09H272.212H273.336H274.452H274.458H275.577H276.698H277.823V10.9741V9.85108H276.698H275.577H274.458H274.452H273.336H272.212H271.09H269.966H268.844H267.719H266.598H265.473H264.352V8.73077V7.60779V6.48749V5.3645V4.24152V3.12122H265.473H266.598H267.719H268.844H269.966H271.09H272.212H273.336H274.458H275.582H276.704H277.823H277.828H278.947H280.069V2.00091V0.87793H278.947H277.828Z" fill="black"/>
<path fill-rule="evenodd" clip-rule="evenodd" d="M231.99 0.87793L231.99 3.15924L239.822 3.15924V18.8242H242.104V3.15924L249.936 3.15924V0.87793L242.104 0.87793H239.822L231.99 0.87793Z" fill="black"/>
<rect x="352.523" y="0.87793" width="2.28129" height="17.9463" fill="black"/>
<path d="M427.281 0.87793H429.562V16.8471H443.25V18.8242H427.281V0.87793Z" fill="black"/>
<path d="M307.994 18.8779L303.881 11.7958H306.13L310.243 18.8779H307.994Z" fill="black"/>
<path d="M307.989 0.891322H292.236V18.8757H294.486V12.1299H310.24V0.87793H307.989V0.891322ZM307.989 9.89022H294.486V3.13904H307.989V9.89022Z" fill="black"/>
<path d="M412.863 0.891322H397.109V18.8757H399.36V12.1299H412.863V18.8757H415.113V0.87793H412.863V0.891322ZM412.863 9.89022H399.36V3.13904H412.863V9.89022Z" fill="black"/>
</svg>
