<svg width="285" height="16" viewBox="0 0 285 16" fill="none" xmlns="http://www.w3.org/2000/svg">
<g clip-path="url(#clip0_4112_555)">
<path d="M100.251 0.48761V1.4866V2.48965V3.48864V4.48761V5.4866V6.48965V7.48864V8.48761V9.4866V10.4897V11.4886V12.4876L99.2578 11.4886L98.2688 10.4897L97.2798 9.4866L96.2908 8.48761L95.2977 7.48864L94.3087 6.48965L93.3196 5.4866L92.3265 4.48761L91.3375 3.48864L90.3485 2.48965L89.3595 1.4866L88.3664 0.48761H87.3774H86.3884V1.4866V2.48965V3.48864V4.48761V5.4866V6.48965V7.48864V8.48761V9.4866V10.4897V11.4886V12.4876V13.4907V14.4897V15.4886V16.4876H87.3774H88.3664V15.4886V14.4897V13.4907V12.4876V11.4886V10.4897V9.4866V8.48761V7.48864V6.48965V5.4866V4.48761V3.48864L89.3595 4.48761L90.3485 5.4866L91.3375 6.48965L92.3265 7.48864L93.3196 8.48761L94.3087 9.4866L95.2977 10.4897L96.2908 11.4886L97.2798 12.4876L98.2688 13.4907L99.2578 14.4897L100.251 15.4886L101.24 16.4876H102.229V15.4886V14.4897V13.4907V12.4876V11.4886V10.4897V9.4866V8.48761V7.48864V6.48965V5.4866V4.48761V3.48864V2.48965V1.4866V0.48761H101.24H100.251Z" fill="white"/>
<path d="M129.076 6.48811H127.094V0.48761H115.217V16.4876H131.074V6.48811H129.096H129.076ZM117.199 5.48938V2.48913H125.117V6.48811H117.199V5.48938ZM129.076 9.48836V14.4861H117.199V8.48557H129.076V9.48836Z" fill="white"/>
<path d="M157.9 6.48811H155.922V0.48761H144.037V16.4876H159.873V6.48811H157.9ZM146.022 5.48938V2.48913H153.941V6.48811H146.014L146.022 5.48938ZM157.9 9.48836V14.4861H146.014V8.48557H157.9V9.48836Z" fill="white"/>
<path d="M71.5434 0.48761H71.5354H70.5504H69.5614H68.5724H67.5833H66.5902H65.6012H64.6122H63.6192H62.6301H61.641H60.652H59.659H58.67H57.681V1.4866V2.48965V3.48864V4.48761V5.4866V6.48965V7.48864V8.48761V9.4866V10.4897V11.4886V12.4876V13.4907V14.4897V15.4886V16.4876H58.67H59.659H60.652H61.641H62.6301H63.6192H64.6122H65.6012H66.5902H67.5833H68.5724H69.5614H70.5504H71.5354H71.5434H72.5284H73.5175V15.4886V14.4897H72.5284H71.5434H71.5354H70.5504H69.5614H68.5724H67.5833H66.5902H65.6012H64.6122H63.6192H62.6301H61.641H60.652H59.659V13.4907V12.4876V11.4886V10.4897H60.652H61.641H62.6301H63.6192H64.6122H65.6012H66.5902H67.5833H68.5683H68.5724H69.5573H70.5464H71.5354V9.4866V8.48761H70.5464H69.5573H68.5724H68.5683H67.5833H66.5902H65.6012H64.6122H63.6192H62.6301H61.641H60.652H59.659V7.48864V6.48965V5.4866V4.48761V3.48864V2.48965H60.652H61.641H62.6301H63.6192H64.6122H65.6012H66.5902H67.5833H68.5724H69.5614H70.5504H71.5354H71.5434H72.5284H73.5175V1.4866V0.48761H72.5284H71.5434Z" fill="white"/>
<path d="M13.859 0.48761H0V16.4876H15.8406V0.48761H13.859ZM13.859 3.48786V14.4942H1.97755V2.48913H13.8549L13.859 3.48786Z" fill="white"/>
<path d="M42.7167 0.48761H28.8577V16.4876H30.8393V10.4871H44.6942V0.48761H42.7167ZM42.7167 3.48786V8.48557H30.8393V2.48913H42.7167V3.48786Z" fill="white"/>
</g>
<path d="M183.003 7.9816H176V15.9756H177V12.9771H184.003V7.97565H183.003V7.9816ZM183.003 9.48086V11.9816H177V8.98071H183.003V9.48086Z" fill="white"/>
<path d="M190.512 8H191.529V15.1186H197.631V16H190.512V8Z" fill="white"/>
<path d="M211.065 7.9816H204.062V15.9756H205.063V12.9771H211.065V15.9756H212.065V7.97565H211.065V7.9816ZM211.065 11.9816H205.063V8.98071H211.065V11.9816Z" fill="white"/>
<path fill-rule="evenodd" clip-rule="evenodd" d="M218.575 8V9.01695L222.066 9.01695V16H223.083V9.01695L226.575 9.01695V8L218.575 8Z" fill="white"/>
<path d="M240.067 8H240.07H240.568H241.068V8.5006V9H240.568H240.07H240.067H239.568H239.068H238.567H238.067H237.566H237.066H236.565H236.065H235.563H235.063H234.562H234.062V9.4994V10V10.5006V11V11.5006V12H234.562H235.063H235.563H236.065H236.565H237.066H237.566H238.067H238.565H238.567H239.066H239.566H240.568V13H239.566H239.066H238.567H238.565H238.067H237.566H237.066H236.565H236.065H235.563H235.063H234.562H234.062V13.5006V14V14.5006V15.0012V15.6207V16H233.561H233.06V15.5006V15.0012V14.5006V14V13.5006V13V12.5006V12V11.5006V11V10.5006V10V9.4994V9V8.5006V8H233.561H234.062H234.562H235.063H235.563H236.065H236.565H237.066H237.566H238.067H238.567H239.068H239.568H240.067Z" fill="white"/>
<path d="M254.561 7.98199H247.554V11.982V15.982H255.564V7.98199H254.563H254.561ZM254.561 9.48237V14.9821H248.554V8.98185H254.561V9.48237Z" fill="white"/>
<path d="M269.071 15.9746L267.243 12.827H268.243L270.071 15.9746H269.071Z" fill="white"/>
<path d="M269.069 7.98056H262.067V15.9736H263.068V12.9755H270.069V7.97461H269.069V7.98056ZM269.069 11.9801H263.068V8.97955H269.069V11.9801Z" fill="white"/>
<path d="M276.581 15.9972V7.99719H277.598L280.817 11.2504L283.562 7.99719H284.578V15.9972H283.562V9.556L281.325 12.267H280.309L277.598 9.556V15.9972H276.581Z" fill="white"/>
<defs>
<clipPath id="clip0_4112_555">
<rect width="160" height="16" fill="white"/>
</clipPath>
</defs>
</svg>
