<svg width="285" height="16" viewBox="0 0 285 16" fill="none" xmlns="http://www.w3.org/2000/svg">
<g clip-path="url(#clip0_4112_556)">
<path d="M100.251 0V0.998986V2.00204V3.00103V4V4.99899V6.00204V7.00103V8V8.99899V10.002V11.001V12L99.2578 11.001L98.2688 10.002L97.2798 8.99899L96.2908 8L95.2977 7.00103L94.3087 6.00204L93.3196 4.99899L92.3265 4L91.3375 3.00103L90.3485 2.00204L89.3595 0.998986L88.3664 0H87.3774H86.3884V0.998986V2.00204V3.00103V4V4.99899V6.00204V7.00103V8V8.99899V10.002V11.001V12V13.0031V14.002V15.001V16H87.3774H88.3664V15.001V14.002V13.0031V12V11.001V10.002V8.99899V8V7.00103V6.00204V4.99899V4V3.00103L89.3595 4L90.3485 4.99899L91.3375 6.00204L92.3265 7.00103L93.3196 8L94.3087 8.99899L95.2977 10.002L96.2908 11.001L97.2798 12L98.2688 13.0031L99.2578 14.002L100.251 15.001L101.24 16H102.229V15.001V14.002V13.0031V12V11.001V10.002V8.99899V8V7.00103V6.00204V4.99899V4V3.00103V2.00204V0.998986V0H101.24H100.251Z" fill="black"/>
<path d="M129.076 6.0005H127.094V0H115.217V16H131.074V6.0005H129.096H129.076ZM117.199 5.00177V2.00152H125.117V6.0005H117.199V5.00177ZM129.076 9.00075V13.9985H117.199V7.99796H129.076V9.00075Z" fill="black"/>
<path d="M157.9 6.0005H155.922V0H144.037V16H159.873V6.0005H157.9ZM146.022 5.00177V2.00152H153.941V6.0005H146.014L146.022 5.00177ZM157.9 9.00075V13.9985H146.014V7.99796H157.9V9.00075Z" fill="black"/>
<path d="M71.5434 0H71.5353H70.5504H69.5614H68.5723H67.5832H66.5902H65.6012H64.6122H63.6191H62.6301H61.641H60.652H59.659H58.6699H57.6809V0.998986V2.00204V3.00103V4V4.99899V6.00204V7.00103V8V8.99899V10.002V11.001V12V13.0031V14.002V15.001V16H58.6699H59.659H60.652H61.641H62.6301H63.6191H64.6122H65.6012H66.5902H67.5832H68.5723H69.5614H70.5504H71.5353H71.5434H72.5284H73.5175V15.001V14.002H72.5284H71.5434H71.5353H70.5504H69.5614H68.5723H67.5832H66.5902H65.6012H64.6122H63.6191H62.6301H61.641H60.652H59.659V13.0031V12V11.001V10.002H60.652H61.641H62.6301H63.6191H64.6122H65.6012H66.5902H67.5832H68.5683H68.5723H69.5573H70.5463H71.5353V8.99899V8H70.5463H69.5573H68.5723H68.5683H67.5832H66.5902H65.6012H64.6122H63.6191H62.6301H61.641H60.652H59.659V7.00103V6.00204V4.99899V4V3.00103V2.00204H60.652H61.641H62.6301H63.6191H64.6122H65.6012H66.5902H67.5832H68.5723H69.5614H70.5504H71.5353H71.5434H72.5284H73.5175V0.998986V0H72.5284H71.5434Z" fill="black"/>
<path d="M13.859 0H0V16H15.8406V0H13.859ZM13.859 3.00025V14.0066H1.97755V2.00152H13.8549L13.859 3.00025Z" fill="black"/>
<path d="M42.7166 0H28.8577V16H30.8392V9.99948H44.6942V0H42.7166ZM42.7166 3.00025V7.99796H30.8392V2.00152H42.7166V3.00025Z" fill="black"/>
</g>
<path d="M183.003 7.9816H176V15.9756H177V12.9771H184.003V7.97565H183.003V7.9816ZM183.003 9.48086V11.9816H177V8.98071H183.003V9.48086Z" fill="black"/>
<path d="M190.512 8H191.529V15.1186H197.631V16H190.512V8Z" fill="black"/>
<path d="M211.065 7.9816H204.062V15.9756H205.063V12.9771H211.065V15.9756H212.065V7.97565H211.065V7.9816ZM211.065 11.9816H205.063V8.98071H211.065V11.9816Z" fill="black"/>
<path fill-rule="evenodd" clip-rule="evenodd" d="M218.575 8V9.01695L222.066 9.01695V16H223.083V9.01695L226.575 9.01695V8L218.575 8Z" fill="black"/>
<path d="M240.067 8H240.07H240.568H241.068V8.5006V9H240.568H240.07H240.067H239.568H239.068H238.567H238.067H237.566H237.066H236.565H236.065H235.563H235.063H234.562H234.062V9.4994V10V10.5006V11V11.5006V12H234.562H235.063H235.563H236.065H236.565H237.066H237.566H238.067H238.565H238.567H239.066H239.566H240.568V13H239.566H239.066H238.567H238.565H238.067H237.566H237.066H236.565H236.065H235.563H235.063H234.562H234.062V13.5006V14V14.5006V15.0012V15.6207V16H233.561H233.06V15.5006V15.0012V14.5006V14V13.5006V13V12.5006V12V11.5006V11V10.5006V10V9.4994V9V8.5006V8H233.561H234.062H234.562H235.063H235.563H236.065H236.565H237.066H237.566H238.067H238.567H239.068H239.568H240.067Z" fill="black"/>
<path d="M254.561 7.98199H247.554V11.982V15.982H255.564V7.98199H254.563H254.561ZM254.561 9.48237V14.9821H248.554V8.98185H254.561V9.48237Z" fill="black"/>
<path d="M269.071 15.9746L267.243 12.827H268.243L270.071 15.9746H269.071Z" fill="black"/>
<path d="M269.069 7.98056H262.067V15.9736H263.068V12.9755H270.069V7.97461H269.069V7.98056ZM269.069 11.9801H263.068V8.97955H269.069V11.9801Z" fill="black"/>
<path d="M276.581 15.9972V7.99719H277.598L280.817 11.2504L283.562 7.99719H284.578V15.9972H283.562V9.556L281.325 12.267H280.309L277.598 9.556V15.9972H276.581Z" fill="black"/>
<defs>
<clipPath id="clip0_4112_556">
<rect width="160" height="16" fill="white"/>
</clipPath>
</defs>
</svg>
