<?xml version="1.0" encoding="UTF-8"?>
<svg width="64px" height="58px" viewBox="0 0 64 58" version="1.1" xmlns="http://www.w3.org/2000/svg" xmlns:xlink="http://www.w3.org/1999/xlink">
    <title>settings</title>
    <g id="settings" stroke="none" stroke-width="1" fill="none" fill-rule="evenodd">
        <circle id="Oval" stroke="#FFFFFF" stroke-width="11" fill="#353640" cx="32.5" cy="29.5" r="29.5"></circle>
        <path d="M29.314333,11.8460537 L31.7231271,15.1266551 L32.2907165,15.1266551 L34.6995106,11.8529748 C35.2484146,11.0878499 36.2518387,10.8011872 37.1221484,11.1608648 L41.0052906,12.7596389 C41.8749589,13.1169812 42.3849582,14.0251436 42.2373749,14.9536276 L41.6213327,18.9678656 L42.0297202,19.3762105 L46.0443771,18.7602326 C46.9729579,18.6126647 47.8812151,19.1226108 48.2385947,19.9921884 L49.8444574,23.8749255 C50.2068797,24.7449885 49.9196962,25.7500261 49.1522752,26.2973105 L45.8782533,28.7058533 L45.8782533,29.2733834 L49.1522752,31.6819262 C49.9196962,32.2292106 50.2068797,33.2342482 49.8444574,34.1043112 L48.2385947,37.9870483 C47.8812151,38.8566259 46.9729579,39.366572 46.0443771,39.2190041 L42.0297202,38.6030262 L41.6213327,39.0113711 L42.2373749,43.0256091 C42.3849582,43.9540931 41.8749589,44.8622555 41.0052906,45.2195978 L37.1221484,46.825293 C36.8751759,46.9316597 36.6088872,46.9858544 36.3399825,46.9844783 C35.6903342,46.9851637 35.0799552,46.6735681 34.6995106,46.1470252 L32.2907165,42.8733449 L31.7231271,42.8733449 L29.314333,46.1539463 C28.765429,46.9190712 27.762005,47.2057339 26.8916953,46.8460563 L23.0085531,45.2195978 C22.1388848,44.8622555 21.6288855,43.9540931 21.7764687,43.0256091 L22.3925109,39.0113711 L21.9841234,38.6030262 L17.9694666,39.2190041 C17.0408858,39.366572 16.1326286,38.8566259 15.775249,37.9870483 L14.1693863,34.1043112 C13.8069639,33.2342482 14.0941475,32.2292106 14.8615685,31.6819262 L18.1355903,29.2733834 L18.1355903,28.7058533 L14.8477248,26.2973105 C14.0803038,25.7500261 13.7931203,24.7449885 14.1555426,23.8749255 L15.775249,19.9921884 C16.1326286,19.1226108 17.0408858,18.6126647 17.9694666,18.7602326 L21.9841234,19.3762105 L22.3925109,18.9678656 L21.7764687,14.9536276 C21.6288855,14.0251436 22.1388848,13.1169812 23.0085531,12.7596389 L26.8916953,11.1539437 C27.762005,10.7942661 28.765429,11.0809288 29.314333,11.8460537 Z M36.8676471,13 L34.4411765,16.3088235 C34.0371487,16.8480366 33.4088368,17.1730255 32.7352941,17.1911765 L31.3382353,17.1911765 C30.6487023,17.1895051 30.001333,16.8589916 29.5955882,16.3014706 L27.1691176,13 L24.125,14.2426471 L24.75,18.2941176 C24.8551991,18.982735 24.6289443,19.6805811 24.1397059,20.1764706 L23.1764706,21.1397059 C22.6855627,21.6222535 21.9975313,21.8479713 21.3161765,21.75 L17.2426471,21.1323529 L16,24.1323529 L19.3014706,26.5588235 C19.8589916,26.9645683 20.1895051,27.6119376 20.1911765,28.3014706 L20.1911765,29.7352941 C20.1895051,30.4248271 19.8589916,31.0721964 19.3014706,31.4779412 L16,33.9044118 L17.2426471,36.9117647 L21.2941176,36.2867647 C21.9760786,36.1816432 22.6672511,36.4083915 23.1544118,36.8970588 L24.1397059,37.8235294 C24.6283732,38.3106901 24.8551215,39.0018626 24.75,39.6838235 L24.1029412,43.7573529 L27.1102941,45 L29.5367647,41.6985294 C29.9425095,41.1410084 30.5898788,40.8104949 31.2794118,40.8088235 L32.7352941,40.8088235 C33.4218384,40.8157153 34.0660285,41.1418875 34.4779412,41.6911765 L36.9044118,45 L39.9117647,43.7573529 L39.2867647,39.7058824 C39.17005,39.0243743 39.3796355,38.3275704 39.8529412,37.8235294 L40.8235294,36.8602941 C41.3144373,36.3777465 42.0024687,36.1520287 42.6838235,36.25 L46.7352941,36.875 L47.9779412,33.8676471 L44.6764706,31.4411765 C44.1375889,31.0385194 43.8168666,30.4079468 43.8088235,29.7352941 L43.8088235,28.3382353 C43.8104949,27.6487023 44.1410084,27.001333 44.6985294,26.5955882 L48,24.1691176 L46.7573529,21.1323529 L42.7058824,21.75 C42.017265,21.8551991 41.3194189,21.6289443 40.8235294,21.1397059 L39.8602941,20.1764706 C39.3777465,19.6855627 39.1520287,18.9975313 39.25,18.3161765 L39.875,14.2647059 L36.8676471,13 Z" id="Combined-Shape" fill="#FFFFFF" fill-rule="nonzero"></path>
        <path d="M32.5,23.0755556 C29.0966986,23.0755556 26.3377778,25.8344764 26.3377778,29.2377778 C26.3377778,32.6410791 29.0966986,35.4 32.5,35.4 C35.9033014,35.4 38.6622222,32.6410791 38.6622222,29.2377778 C38.6622222,27.6034548 38.01299,26.0360695 36.8573491,24.8804287 C35.7017083,23.7247878 34.1343229,23.0755556 32.5,23.0755556 Z" id="Path" stroke="#FFFFFF" stroke-width="4" fill-rule="nonzero"></path>
    </g>
</svg>