<?xml version="1.0" encoding="UTF-8"?>
<svg width="64px" height="64px" viewBox="0 0 64 64" version="1.1" xmlns="http://www.w3.org/2000/svg" xmlns:xlink="http://www.w3.org/1999/xlink">
    <title>icon_64x64@3x</title>
    <g id="icon_64x64" stroke="none" stroke-width="1" fill="none" fill-rule="evenodd">
        <path d="M52.3239685,0.535587969 L52.3436491,0.533260267 L60.251213,8.78802889 L60.3055446,8.83301611 C60.3113185,8.83784225 60.3170433,8.84264645 60.3227575,8.84746426 C61.3308253,9.69738958 61.9497251,10.9194162 62.0399913,12.2322568 L62.0417245,12.2574639 L62.0488257,12.2574011 L62.0489367,12.409155 C62.0500634,12.4446898 62.050806,12.4793939 62.051457,12.5141168 L62.051457,12.5664192 L62.051457,13.6338722 L62.0489509,13.6284101 L62.0488257,35.047619 L62.0307176,35.0476323 L62.0307245,51.8208042 C62.0307245,54.1674575 60.3577988,56.1797193 58.0534228,56.6089626 L57.9832671,56.6215076 L53.6119873,57.371147 L53.6251844,57.3411248 L53.5575707,57.3740564 L20.5652609,63.0568214 L20.5246986,63.0519885 L20.5169586,63.0521865 L17.7650087,63.52395 L17.7255489,63.5305512 C16.4230611,63.7429556 15.0904283,63.417573 14.0329618,62.6301252 L4.69888402,56.4425625 L4.69893638,56.427531 L4.68328477,56.4202848 C3.77717039,56.0007802 2.9650402,54.5197616 2.94488478,53.3909621 L2.94488478,53.3517231 L2.94488478,15.869954 C2.94488478,10.9640263 6.41851897,6.99554412 11.3833919,6.07744003 L11.5320315,6.05095205 L48.7902296,-0.347645294 C49.9958424,-0.552636871 51.5674679,-0.204787878 52.2929876,0.504615127 L52.3239685,0.535587969 Z" id="bg" fill="#FFFFFF" fill-rule="nonzero"></path>
        <g id="ape" transform="translate(4.844893, 1.772585)" fill="#000000" fill-rule="nonzero">
            <path d="M8.98082628,8.45164312 L46.155107,2.02618991 L46.155107,2.02618991 C46.155107,0.605912297 43.8698714,0.0423617745 42.4818103,0.28016055 L8.099817,6.22947329 C3.50994726,7.02267879 0.155107041,10.6917293 0.155107041,15.3836403 L0.155107041,50.233648 C0.155107041,51.462275 1.25327029,53.420043 2.45543035,53.2121048 L2.45543035,53.2121048 L2.45543035,16.2512258 C2.45539988,12.397237 5.21091035,9.1036695 8.98082628,8.45164312 Z" id="Path"></path>
            <path d="M10.9132834,11.7804932 L50.155107,4.99282619 L50.155107,4.99282619 C50.155107,3.57270762 47.8714879,3.04301534 46.4828879,3.28314251 L10.1578247,9.53514119 C6.68982731,10.1327427 4.15510704,12.824666 4.15510704,16.3722461 L4.15510704,53.231766 C4.15510704,54.4611953 5.25327029,56.4196986 6.45543035,56.2121678 L6.45543035,56.2121678 L6.45543035,17.1110989 C6.45539767,14.4767442 8.33797813,12.2255946 10.9132834,11.7804932 Z" id="Path"></path>
            <path d="M37.0464201,26.9575959 C37.1427735,26.9731493 37.2008109,26.8438619 37.1089653,26.8190737 C36.1601482,26.5654769 35.1860273,26.3886047 34.1992058,26.2907453 C33.0694483,26.1789555 32.3634203,26.2154087 31.6168225,26.3981608 C30.6104649,26.6445844 29.1319195,27.3410836 28.6687471,27.6458324 L26.155107,29.2274153 C27.1509069,28.5909781 28.2330774,28.0618118 29.3775924,27.6516649 C31.8015313,26.7829696 34.4662393,26.5417996 37.0464201,26.9575959 L37.0464201,26.9575959 Z" id="Path"></path>
            <path d="M22.155575,56.34955 C22.2300684,57.308621 22.3048762,58.2679094 22.3799982,59.2274153 L23.155107,59.0434303 C22.8656199,58.1195905 22.5758185,57.1959682 22.2857028,56.2725634 C22.2564712,56.179266 22.1470884,56.243204 22.155575,56.34955 Z" id="Path"></path>
            <path d="M25.0808933,36.3193168 C25.3396565,36.5732926 25.6309619,36.7955214 25.8745037,36.8018708 C28.5812822,36.8822964 30.5773804,36.0335941 31.1075038,35.7436385 C31.1289353,35.7332555 31.144996,35.7142006 31.1516999,35.6912028 C31.1584038,35.6682051 31.155107,35.6434204 31.1426704,35.623 C30.3527105,34.6140475 29.4079277,33.7387951 28.3440389,33.0303308 C27.3000632,32.3382469 26.6864848,32.1736918 26.0235681,32.2414187 C25.3440703,32.3047403 24.702517,32.5856485 24.1928054,33.0430296 C23.4627048,33.7070704 22.9819197,34.7780015 23.2139142,35.6827901 C23.4390855,36.5642976 24.2379446,36.8902332 24.5549689,37.0193375 C24.9096594,37.1603308 25.2880248,37.2309381 25.6692778,37.2272801 C25.7522079,37.2272801 25.7926233,37.1076999 25.7217652,37.0775403 C25.5063266,36.989369 25.3121359,36.8556749 25.1522762,36.6854652 C25.0798085,36.6075088 25.0152761,36.5224247 24.9596473,36.4314895 C24.914508,36.356355 25.0221073,36.2611141 25.0808933,36.3193168 Z" id="Path"></path>
            <path d="M19.7150434,23.6288186 C18.1109758,23.657801 16.948285,23.6154008 15.1990849,23.9202532 L12.155107,24.5761154 L12.162717,24.5938269 C12.162717,24.5938269 12.6894339,25.8159202 13.6428512,26.7444321 C14.3429661,27.4260564 15.8350588,28.330953 18.0359635,28.6706917 C18.1164115,28.6830361 18.1017351,28.8027229 18.0169386,28.8241914 C17.1060187,29.0542016 16.172084,29.1838039 15.2322425,29.2106241 L15.0588445,29.2138443 C14.9648073,29.2138443 14.9289318,29.352316 15.0186205,29.3694908 C15.9714442,29.5478099 16.9424391,29.6130358 17.910943,29.5637806 C20.5967098,29.4333596 22.9481827,28.4774754 23.6684096,28.0357613 C23.7227663,28.0024852 23.8809445,27.9026567 23.8961644,27.9230518 C23.9380191,27.976723 22.9318757,28.9787644 21.6805834,29.7902731 C21.1951776,30.1053231 19.945516,30.8636972 18.3039422,31.2662313 C17.773964,31.3961156 17.4152094,31.4369057 17.4146659,31.4471032 C17.4146659,31.4696451 19.1345133,31.3676698 20.8538172,30.754208 C21.9131734,30.3690052 22.9087783,29.8307251 23.8081064,29.1569528 C23.8345244,29.1292378 23.8786949,29.1279162 23.9067639,29.1540009 C23.934833,29.1800857 23.9361715,29.2236991 23.9097535,29.2514142 C23.3998873,30.0248163 22.8291414,31.0923366 22.5073495,32.3895696 C22.4415778,32.6547054 22.3915696,32.9085702 22.3535199,33.1500906 C22.3388436,33.2434785 22.4692998,33.257433 22.5035445,33.1635084 C23.0086893,31.814719 23.6879571,30.5359135 24.5245284,29.3587566 C25.058243,28.6061268 25.6505305,27.8956963 26.2960147,27.2339135 C26.3054155,27.2242696 26.316694,27.216602 26.3291724,27.2113716 C27.9338805,26.539005 29.5993452,26.017867 31.3033583,25.6549066 C32.1475185,25.4772549 32.8628533,25.3296591 33.7494119,25.2915525 C35.3814088,25.2194126 37.0047447,25.5632 38.463229,26.289837 C38.4729771,26.2945423 38.4812448,26.301778 38.4871459,26.3107688 C39.2481404,27.4646997 40.0091348,28.6186306 40.7701293,29.7725616 C40.8136147,29.8380405 40.9272203,29.7795388 40.9158054,29.6979586 C40.8567957,29.2935209 40.7605479,28.8952408 40.6282582,28.508068 C40.3720364,27.7573205 39.9723609,27.0620635 39.450891,26.4599747 C39.40197,26.4036199 39.4742644,26.3054016 39.5476461,26.3284803 C40.1272556,26.5069541 40.7211461,26.636587 41.3229374,26.7159864 C42.3291896,26.8463294 43.3480615,26.8510178 44.3555003,26.7299409 C44.453886,26.7186699 44.470193,26.5737577 44.3728945,26.5742944 C43.5103328,26.5839191 42.6505768,26.4755472 41.8181274,26.2522671 C41.0883637,26.054566 40.3896556,25.7585608 39.7416996,25.3725961 C39.6726666,25.3312692 39.7308283,25.2115825 39.8139941,25.2260737 C41.0051332,25.3955285 42.2148899,25.3931782 43.4053444,25.2190964 C45.5796143,24.9083401 47.3587106,24.1129329 48.5322727,23.4629745 C48.6192435,23.4146705 48.5866295,23.2917634 48.4925923,23.3212826 C47.7825127,23.550205 47.0543232,23.7202171 46.3156046,23.8295489 C46.0068583,23.8746327 45.7126071,23.9073721 45.432851,23.9277672 C45.3371832,23.9352812 45.3388139,23.7962727 45.432851,23.7737308 C46.1378057,23.6065619 46.8134959,23.3362935 47.4375279,22.971883 C50.1010085,21.4207851 50.9739778,18.72005 51.1511808,18.0878032 C51.1584256,18.0681277 51.1555329,18.046203 51.1434246,18.029017 C51.1313164,18.0118309 51.1115037,18.0015282 51.0903012,18.0013926 C49.178078,18.0051358 47.2813823,18.3404877 45.4866642,18.992163 C44.5807125,19.3179899 43.702438,19.7144386 42.8601462,20.17776 C42.7748061,20.2244539 42.7128394,20.1208685 42.7867646,20.0559263 C43.5682273,19.3661098 44.4172991,18.7548218 45.3214197,18.2311053 C46.9487725,17.286625 48.744587,16.659312 50.6114183,16.3832057 C50.709804,16.3687145 50.7201318,16.2221921 50.6244639,16.2274153 C49.2072552,16.2798683 47.8032369,16.5166347 46.4487786,16.9317254 C45.3534902,17.2671704 43.4482862,18.1495251 39.6367911,19.9147711 C39.3970779,20.0258705 39.0774602,20.280272 37.6859275,20.9162758 C37.5418821,20.9817547 35.4214254,22.1877467 34.0152164,22.8162365 C35.6377653,21.9859429 36.4069132,21.1985863 36.8417672,20.5319899 C36.8961239,20.4514831 36.8026303,20.3801004 36.7330537,20.4455793 C34.5245391,22.4598597 32.489966,22.7818869 31.2870512,22.928946 C29.6231912,23.1323599 27.5212158,22.8505861 26.6580307,22.7142612 C26.5737777,22.7008434 26.515616,22.8216036 26.5868233,22.8613203 C27.0619013,23.1296763 28.0968538,23.5762208 29.9428089,23.7672903 C30.0265183,23.7758777 30.0156469,23.898248 29.9292197,23.9207899 C29.4045263,24.0570573 28.8683422,24.1458033 28.3273264,24.1859257 C25.5953563,24.382899 23.7341813,23.1661728 23.1688711,22.8441455 C21.6338366,21.9703783 18.6637839,21.4245421 12.3252437,22.9670526 C12.2274015,22.9906679 12.2279451,23.1323599 12.3252437,23.121089 C13.0707222,23.0368945 13.821076,23.0021093 14.5712644,23.0169668 C16.6118167,23.0593671 18.5295227,23.1269928 19.7607031,23.4710252 C19.8433253,23.4951773 19.804732,23.6245249 19.7150434,23.6288186 Z" id="Path"></path>
            <path d="M38.1540391,34.8618824 C37.9961575,35.1091568 37.8051365,35.3285205 37.5875185,35.5124608 C37.5156543,35.5738142 37.5560451,35.6861027 37.6399741,35.6560047 C38.0400633,35.501137 38.4157957,35.2783162 38.7536068,34.9955867 C39.0683405,34.7310721 39.8688132,34.0637084 40.0943724,33.0120172 C40.3164576,32.0285798 39.9158474,31.0025974 39.1155506,30.5052067 C38.3691072,30.0525801 37.5329646,30.2736842 37.2858987,30.3396681 C36.6233842,30.5237285 36.0101781,30.9422056 34.9668359,32.1056064 C33.9038982,33.2944811 32.9656753,34.6116548 32.1699024,36.0322289 C32.1556774,36.0518811 32.1513748,36.078115 32.1584559,36.1020217 C32.165537,36.1259284 32.18305,36.144295 32.2050477,36.1508842 C32.7348494,36.2631726 34.7297365,36.4159775 37.4348726,35.2751501 C37.6782667,35.1721226 37.9693954,34.8173143 38.2280016,34.4381961 C38.2872764,34.351954 38.3948104,34.4138862 38.3507477,34.5093893 C38.2930915,34.6320449 38.2273449,34.7498598 38.1540391,34.8618824 Z" id="Path"></path>
            <path d="M49.8894658,8.29387607 L12.8974196,14.7971055 C10.7354236,15.1775957 9.15510704,17.0986762 9.15510704,19.3466604 L9.15510704,20.2274153 C10.9694147,18.3074248 13.1469072,17.4448923 13.9357834,17.1676892 C13.9598845,17.1572502 13.9877407,17.1625869 14.0065338,17.1812437 C14.0253268,17.1999004 14.031416,17.2282629 14.0219994,17.2532798 C13.8287319,17.9597244 13.6349256,18.6661691 13.4405804,19.3726137 C13.4190264,19.4510257 13.5041646,19.4946493 13.5628993,19.435012 C14.8588591,18.122298 16.4627481,17.1735522 18.220179,16.6800989 C18.9875013,16.4663984 21.9382434,15.8518027 24.5786079,17.2179392 C25.9300435,17.916469 26.4645826,18.4570703 26.8002861,19.0236249 C26.840161,19.0915452 26.9527806,19.0363254 26.9452367,18.9523914 C26.9075172,18.5404521 26.6591074,17.9341393 25.4639383,17.0092085 C24.3862385,16.1748382 22.8903912,15.9600334 22.0524796,15.8976351 C21.9662636,15.8915609 21.9770406,15.7612423 22.065412,15.7391544 C23.6851948,15.3316327 25.2807294,14.8699956 27.5783854,15.3620035 C29.3943095,15.7485418 30.8082517,16.9528844 32.1133462,17.5155736 C32.156688,17.529812 32.2034635,17.5077623 32.2211162,17.4647715 C32.5444261,16.7331098 34.5575694,14.907545 36.4780304,13.9019935 C38.9906875,12.5866591 40.8723514,12.3381702 41.7011026,12.3050384 C41.785702,12.3017252 41.7910905,12.4248653 41.7075688,12.4596537 C40.9946703,12.7561837 39.6750269,13.3509004 38.8392707,14.35093 C37.8973611,15.477965 37.6726607,15.9876432 37.7125356,16.4465193 C37.7190018,16.515544 37.8036012,16.529349 37.8483257,16.468055 C38.4663866,15.617671 40.9736552,12.7716453 44.1496365,12.0289397 C45.7607978,11.652341 47.1235492,11.9676458 47.7394546,12.1101127 C48.9909619,12.3932031 50.1571181,12.9821991 51.1385198,13.8268946 C51.1891717,13.8705182 51.2753877,13.8147463 51.2710769,13.7418562 C51.241581,13.2328428 51.1280708,12.7326401 50.9353734,12.2625192 C50.6773637,11.6393619 50.2722095,11.0917208 49.7563698,10.6688773 C49.7024848,10.6230449 49.7509813,10.5192318 49.8269592,10.5219928 C50.6761866,10.5567812 52.5303691,10.7892564 53.9841862,12.2470577 C54.4753865,12.7417399 54.8724543,13.3257857 55.155107,13.9693615 L55.155107,12.8434309 C55.155107,11.4827748 54.5693716,10.1914157 53.5542572,9.31434902 C52.5391429,8.43728237 51.198125,8.06387163 49.8894658,8.29387607 Z" id="Path"></path>
            <path d="M52.6627802,26.7867075 C52.591109,26.8409298 52.5108157,26.7726097 52.5582372,26.6950719 C52.8420481,26.2251453 53.1263979,25.7552188 53.4112866,25.2852923 C53.4651748,25.1990788 53.3627873,25.1296743 53.2948882,25.204501 C52.1842535,26.4261293 49.6304942,28.7858834 46.5103705,28.7717857 C45.4431363,28.7713031 44.3967064,28.4746773 43.4861677,27.9145312 C43.4236575,27.8760334 43.3363587,27.9589935 43.3670749,28.0273136 C43.5746266,28.4949665 43.8944264,28.9033903 44.2977232,29.2158662 C44.7696287,29.5707959 45.3257138,29.7951326 45.9105954,29.8665337 C45.9935832,29.8779204 45.9774167,30.0031739 45.8906568,30.0221517 C45.3032846,30.1526051 44.6982337,30.1823028 44.1010315,30.1099918 C43.7688029,30.0682723 43.4422118,29.9895281 43.1272726,29.8752093 C43.052907,29.8475559 42.9769247,29.9511205 43.0291962,30.0085961 C43.6618431,30.706437 44.2276686,31.7057539 44.1500697,33.0157645 C44.1148768,33.5448138 43.9907923,34.06403 43.7830914,34.5513398 C43.7669638,34.5839039 43.7778982,34.6234649 43.8084188,34.6429755 C46.5847362,36.1763819 47.6398661,38.2476735 48.0348662,39.2063236 C48.8377996,41.155615 48.9423426,43.4356624 48.9202484,43.4448802 C48.9159374,43.4448802 48.8959988,43.3619201 48.8275608,43.1737687 C48.8275608,43.1737687 48.781217,43.0458041 48.7235567,42.9075373 C48.658352,42.7519193 48.1437202,42.0139539 47.3165372,41.0173481 C47.262649,40.9495703 47.1419396,41.0439171 47.1845112,41.1219972 C48.2622742,43.082133 48.3118513,44.1107299 48.0839044,44.6930773 C48.0634269,44.7472996 47.9513396,45.0243755 47.8338634,45.3139226 C47.8170393,45.3571012 47.7705116,45.3805094 47.7260871,45.3681449 C47.6086109,45.319887 47.480896,45.2689181 47.3434813,45.2163225 C46.7092332,44.9775379 46.0614316,44.7769226 45.403508,44.6155395 C45.3760536,44.6086051 45.3567581,44.5838341 45.3566253,44.5553527 C45.3453088,44.1600722 45.3226757,43.6964716 45.2801041,43.1824443 C45.153467,41.6522912 45.0192855,40.1655159 44.3402948,38.5502338 C44.2325185,38.2937624 44.0961815,37.9987931 43.9237395,37.6788816 C43.8806289,37.5986326 43.7491419,37.6788816 43.7814747,37.7645528 C43.9205062,38.1386866 44.0509155,38.5383049 44.1656972,38.9634077 C44.7045787,40.9587881 44.7449948,42.8343372 44.6242854,44.3281613 C44.6220004,44.3533672 44.6096319,44.376556 44.5900193,44.3924047 C44.5704067,44.4082535 44.5452346,44.4154007 44.5202812,44.4122059 C44.1193534,44.3287035 43.6823206,44.249539 43.2124159,44.1785078 C43.1945055,44.176081 43.1784442,44.1661626 43.1681841,44.1511932 C43.1579239,44.1362237 43.1544176,44.1175931 43.1585278,44.0998855 C43.1951717,43.8802852 43.2253491,43.6520093 43.2463654,43.4156001 C43.3443122,42.3803323 43.2529921,41.3357683 42.9769247,40.333605 C42.952675,40.2457649 42.8152603,40.2951072 42.8249601,40.3878273 C42.8492098,40.6345388 42.8659151,40.8937213 42.8729206,41.1659172 C42.8935264,42.1216633 42.7968756,43.0763171 42.5851579,44.0082498 C42.574772,44.0528024 42.5341087,44.0834319 42.4886981,44.0809077 C39.2413984,43.6953872 36.2220455,43.9816809 35.6686142,44.0369876 C31.5251546,44.4501615 28.3522205,45.5324384 26.6423496,46.1267147 C24.9821991,46.706651 23.3543831,47.3763676 21.7660112,48.1329396 C21.7489446,48.1431421 21.7281885,48.144966 21.7096226,48.1378947 C21.6910568,48.1308234 21.6767036,48.1156271 21.6706292,48.0966106 C21.3885238,47.0879055 21.2598888,46.0420243 21.2891011,44.9945533 C21.2961065,44.7201885 21.3128119,44.4523304 21.3370615,44.1996545 C21.3462225,44.1025966 21.2098855,44.1015121 21.1856358,44.1996545 C20.916108,45.2353512 20.8249754,46.3098652 20.9161951,47.3765386 C20.948336,47.7182105 21.0023362,48.0574419 21.0778596,48.3921221 C21.0846112,48.43427 21.0625579,48.4757653 21.0239714,48.4935178 C20.525506,48.7386026 20.0739234,48.9685051 19.6735344,49.175092 C19.6546324,49.1876848 19.6305866,49.1894953 19.6100324,49.1798734 C19.5894782,49.1702515 19.5753659,49.1505782 19.5727636,49.1279186 C19.3710701,47.1587255 19.5151708,45.1691839 19.99848,43.2502221 C20.1138006,42.7839104 20.243671,42.3382032 20.3827025,41.9147271 C20.4150353,41.8165847 20.2830094,41.7840514 20.2398989,41.8794826 C20.0674568,42.2590386 19.9316587,42.6038924 19.8233435,42.8994039 C19.1448917,44.7548907 19.0107102,46.2893816 18.8835342,47.8645392 C18.8296461,48.5379801 18.8075519,49.1197853 18.8000076,49.576337 C18.7979922,49.6113963 18.7774133,49.6426633 18.7461194,49.6582126 L18.7170198,49.6733949 C18.1592775,49.9699908 17.4237043,50.3609335 16.5663439,50.8662853 C16.5484562,50.8796264 16.5251394,50.883126 16.504161,50.8756183 C16.4831825,50.8681106 16.4672987,50.8505821 16.4618009,50.8288719 C16.4219237,50.6493961 16.1923602,49.5985681 16.2155321,48.7228781 C16.2500205,47.5251077 16.7711188,46.387524 17.274973,45.555754 C16.588438,46.6636962 15.9011845,47.7734458 15.2132125,48.8850028 C15.1674076,48.9598295 15.0628646,48.939225 15.0731033,48.8557227 C15.2264048,47.5891178 15.5800674,46.3553387 16.1206889,45.2011402 C16.5286222,44.3303302 16.9694272,43.6574316 17.743261,42.47647 C18.4885341,41.3378019 19.1621359,40.4160229 19.6600624,39.7566798 C19.6834778,39.7207646 19.7303809,39.7089661 19.7678387,39.7295687 C20.2084506,40.0244964 20.7108133,40.2130299 21.2357518,40.2804672 C21.7681667,40.3514984 22.6600155,40.4707874 23.499054,39.8792222 C23.8621932,39.6171613 24.1587167,39.2725401 24.3644976,38.8733987 C24.4065304,38.7926075 24.3186927,38.7286252 24.2513325,38.791523 C24.0338793,38.9935509 23.7926379,39.1680012 23.5330035,39.3109726 C23.2156457,39.4861127 22.8719837,39.6079095 22.5155953,39.6715508 C21.7740464,39.7918482 21.0175118,39.5769909 20.4479071,39.0843234 C19.5517472,38.2330334 19.8217268,36.7869249 19.9564472,36.0663106 C20.1076098,35.2973277 20.3964785,34.5624103 20.8089577,33.8974189 C20.8558404,33.8204233 20.7777026,33.7504765 20.7065702,33.805241 C20.5786757,33.9039256 20.4432368,34.0009835 20.3002536,34.0964148 C19.5500263,34.5999071 18.7071578,34.9470729 17.8213988,35.1174205 C17.7373333,35.133145 17.7136225,35.0225315 17.7896048,34.9748159 C18.228368,34.7004729 18.6412566,34.3863 19.0231045,34.036228 C19.4521784,33.6430883 19.8393883,33.2060482 20.1784664,32.7321819 C20.2323545,32.6578973 20.1590666,32.5787328 20.0841621,32.6297017 C19.2887731,33.1719247 18.0682065,33.8388589 16.5641884,34.0904503 C15.0941197,34.3360773 13.996957,34.0758103 13.1692351,33.8800678 C12.4136372,33.7023502 11.6827635,33.4313537 10.9932317,33.0732401 C10.9177883,33.0336578 10.8315673,33.1480669 10.8908443,33.2066269 L12.0984776,34.3821662 C12.1523658,34.432593 12.0903944,34.5345309 12.0154899,34.5220597 C11.1727724,34.3838652 10.3637835,34.0859731 9.63147826,33.6442008 C9.46334724,33.5406363 9.30814938,33.4273117 9.15510704,33.3139871 L9.15510704,55.6947804 C9.15510704,57.0308585 9.74087683,58.2988914 10.7560506,59.1601153 C11.7712244,60.0213392 13.1123209,60.3880049 14.4210568,60.1621551 L16.9893658,59.719159 C16.4889978,58.8595677 16.1604086,57.9098678 16.0220736,56.9234576 C15.7030558,54.7035969 16.3179195,52.7483411 16.7107641,51.7365531 C16.7107641,51.7305887 16.7064531,51.7229975 16.7042975,51.7170331 C20.3541417,49.2271454 23.5976693,47.7750724 25.8571993,46.9237824 C33.496383,44.0445787 40.0610371,44.1898945 42.59378,44.7315752 L43.0054854,44.8367664 C43.0056623,44.8355075 43.0056623,44.8342298 43.0054854,44.8329708 C43.0701512,44.8514064 43.1310448,44.8703842 43.1876274,44.8871931 C43.3789303,44.9517177 45.0381463,45.5270162 47.3618032,46.2487149 C47.4318578,46.270946 47.4981402,46.2915505 47.5611894,46.3105283 C47.5831533,46.3173328 47.5991559,46.3364008 47.6021444,46.3593284 C48.3080791,50.3224357 48.0828266,51.9019311 48.0828266,51.9019311 C47.9510075,52.7888081 47.703314,53.6542741 47.3461757,54.4758633 L51.4120364,53.7742268 C53.5746074,53.4012559 55.155107,51.5145656 55.155107,49.3068522 L55.155107,24.2274153 C55.141635,24.2453087 55.1287018,24.2642865 55.1152298,24.2816376 C54.409525,25.2204478 53.585081,26.0625813 52.6627802,26.7867075 Z" id="Path"></path>
            <path d="M43.579107,54.299207 C43.5042851,54.6024635 43.3704009,54.9019264 43.179107,55.1938993 L43.155107,55.2274153 L44.155107,55.1478147 C44.1147489,54.8506578 44.0143046,54.5559335 43.855107,54.2675529 C43.822107,54.1981933 43.597107,54.2251924 43.579107,54.299207 Z" id="Path"></path>
            <path d="M26.2511788,49.2198113 C27.6719186,48.617229 29.1243714,48.1146828 30.6001807,47.715064 C33.3691072,46.960065 36.2119351,46.6065288 39.0599971,46.6629948 C39.1582702,46.6629948 39.1949144,46.4968456 39.0994174,46.4805442 C38.0232434,46.2958355 36.935385,46.2119525 35.8469658,46.229753 C34.6704645,46.2479353 32.390195,46.3056173 29.4969678,47.4210113 C28.3615139,47.860492 27.261036,48.4077069 26.2073167,49.056797 C26.115151,49.114479 26.1545713,49.2624458 26.2511788,49.2198113 Z" id="Path"></path>
            <path d="M38.6232118,49.2399151 C38.5536046,49.1913946 38.4544006,49.295052 38.5053728,49.3639731 C38.9672689,49.985288 39.186298,50.7555956 39.1208761,51.5286483 C39.0315377,52.8072733 38.3031282,53.7672069 37.9227548,54.190107 C37.867946,54.2535145 37.7742229,54.2149186 37.793406,54.1349701 C37.9353609,53.5532757 38.1255475,52.2994623 37.4705819,51.1415872 C36.9657925,50.2494719 36.1957282,49.8320855 35.7314974,49.6462741 C35.6970804,49.6366498 35.6602493,49.6481768 35.6373343,49.6757445 C35.6144192,49.7033121 35.6096605,49.7418188 35.6251682,49.7741917 C35.9502562,50.2685587 36.1855626,50.8170352 36.3201443,51.3941142 C36.4660526,52.0262899 36.505331,52.6786358 36.4363391,53.3239061 C36.4338467,53.3528428 36.4177696,53.3788431 36.3930693,53.3938827 C36.3683691,53.4089224 36.338015,53.4111935 36.3113749,53.3999951 C34.8000113,52.5412242 32.9845115,52.4130261 31.3687136,53.0509784 C30.0450801,53.562649 29.1429266,54.420028 28.6863689,54.9201198 C28.6724285,54.9388988 28.6507127,54.9502285 28.6274234,54.9508733 C28.6041341,54.9515182 28.5818317,54.9414072 28.5668856,54.923428 C28.3868399,54.6584011 28.251816,54.365123 28.1673292,54.055573 C27.8384761,52.8574479 28.3120245,51.6565659 28.6304639,51.0280051 C28.6715705,50.9458511 28.5833283,50.882995 28.5153653,50.9458511 C28.0555191,51.3676485 27.347937,52.1412194 26.9171395,53.2571905 C26.3915227,54.6196236 26.57294,55.7284269 26.7088659,56.2434056 C26.7269528,56.3117754 26.6458358,56.3817993 26.5866422,56.3481658 C25.8212418,55.9198637 25.2831736,55.1731191 25.1166691,54.3081 C24.9188092,53.2737316 25.2635568,52.3281335 25.5847366,51.7166652 C25.6313241,51.6289975 25.5266392,51.5661414 25.4614167,51.6427817 C24.8062006,52.4061125 24.2685677,53.2640398 23.8664794,54.1879016 C22.9983074,56.2070153 23.0733955,58.0072355 23.318391,59.2274153 L40.9405296,56.1860633 C41.2074487,54.9901436 41.382837,53.1039099 40.4730102,51.3395287 C40.0368586,50.4976715 39.4016069,49.776629 38.6232118,49.2399151 L38.6232118,49.2399151 Z" id="Path"></path>
            <path d="M41.8511332,51.2497485 C41.7930784,51.1909072 41.6668724,51.2583072 41.6889584,51.3364056 C41.8159369,51.7806808 41.874688,52.2369985 41.8637538,52.6940331 C41.8416677,53.6766816 41.5154252,54.5502063 41.155107,55.2274153 L43.1232897,54.9406981 C43.1632515,54.6008851 43.1655754,54.258646 43.130231,53.9184655 C43.036242,52.9388621 42.5897645,52.0073289 41.8511332,51.2497485 L41.8511332,51.2497485 Z" id="Path"></path>
        </g>
    </g>
</svg>