<?xml version="1.0" encoding="UTF-8"?>
<svg width="256px" height="256px" viewBox="0 0 256 256" version="1.1" xmlns="http://www.w3.org/2000/svg" xmlns:xlink="http://www.w3.org/1999/xlink">
    <title>settings</title>
    <g id="settings" stroke="none" stroke-width="1" fill="none" fill-rule="evenodd">
        <rect id="Rectangle" fill="#424242" x="15" y="18" width="225" height="220"></rect>
        <path d="M116.854147,65.1962028 L125.954036,77.5895858 L128.098262,77.5895858 L137.198151,65.2223492 C139.271789,62.3318774 143.062502,61.2489295 146.350338,62.6077114 L161.019987,68.6475247 C164.3054,69.9974845 166.232064,73.4283204 165.674527,76.9359264 L163.347257,92.1008255 L164.890054,93.6434618 L180.056536,91.3164341 C183.564507,90.7589555 186.995701,92.6854186 188.345802,95.9704894 L194.412395,110.638607 C195.781546,113.925512 194.69663,117.722321 191.797484,119.789839 L179.428957,128.888779 L179.428957,131.032782 L191.797484,140.131721 C194.69663,142.19924 195.781546,145.996049 194.412395,149.282954 L188.345802,163.951071 C186.995701,167.236142 183.564507,169.162605 180.056536,168.605127 L164.890054,166.278099 L163.347257,167.820735 L165.674527,182.985634 C166.232064,186.49324 164.3054,189.924076 161.019987,191.274036 L146.350338,197.339996 C145.417331,197.741826 144.411352,197.946561 143.395489,197.941363 C140.941263,197.943952 138.635386,196.766813 137.198151,194.777651 L128.098262,182.410414 L125.954036,182.410414 L116.854147,194.803797 C114.78051,197.694269 110.989797,198.777217 107.70196,197.418435 L93.0323116,191.274036 C89.7468981,189.924076 87.820234,186.49324 88.3777708,182.985634 L90.7050412,167.820735 L89.162244,166.278099 L73.9957627,168.605127 C70.4877907,169.162605 67.0565969,167.236142 65.7064962,163.951071 L59.6399036,149.282954 C58.2707526,145.996049 59.3556682,142.19924 62.2548142,140.131721 L74.6233412,131.032782 L74.6233412,128.888779 L62.202516,119.789839 C59.30337,117.722321 58.2184544,113.925512 59.5876054,110.638607 L65.7064962,95.9704894 C67.0565969,92.6854186 70.4877907,90.7589555 73.9957627,91.3164341 L89.162244,93.6434618 L90.7050412,92.1008255 L88.3777708,76.9359264 C87.820234,73.4283204 89.7468981,69.9974845 93.0323116,68.6475247 L107.70196,62.581565 C110.989797,61.2227831 114.78051,62.305731 116.854147,65.1962028 Z M146.005273,68.5526316 L136.754354,81.1675213 C135.213998,83.2232711 132.818559,84.4622913 130.250677,84.5314919 L124.92439,84.5314919 C122.295546,84.5251197 119.82745,83.2650372 118.280549,81.1394882 L109.029629,68.5526316 L97.4239309,73.2902235 L99.8067434,88.7364551 C100.207815,91.3618086 99.3452187,94.022347 97.4799971,95.9129257 L93.8076625,99.5852603 C91.936076,101.424973 89.3129567,102.285522 86.7152912,101.912007 L71.1849603,99.5572272 L66.4473684,110.994727 L79.034225,120.245646 C81.159774,121.792548 82.4198565,124.260644 82.4262287,126.889488 L82.4262287,132.35594 C82.4198565,134.984785 81.159774,137.45288 79.034225,138.999782 L66.4473684,148.250701 L71.1849603,159.716235 L86.631192,157.333422 C89.231168,156.932646 91.8662632,157.797124 93.7235633,159.660168 L97.4799971,163.192337 C99.3430411,165.049638 100.207519,167.684733 99.8067434,170.284709 L97.3398317,185.81504 L108.805365,190.552632 L118.056284,177.965775 C119.603186,175.840226 122.071281,174.580143 124.700126,174.573771 L130.250677,174.573771 C132.868127,174.600046 135.324102,175.843578 136.894519,177.937742 L146.145438,190.552632 L157.610971,185.81504 L155.228159,170.368808 C154.783184,167.770558 155.582229,165.113994 157.386707,163.192337 L161.087074,159.520003 C162.958661,157.68029 165.58178,156.819741 168.179446,157.193257 L183.625677,159.576069 L188.363269,148.110536 L175.776413,138.859617 C173.721926,137.324487 172.499172,134.920429 172.468508,132.35594 L172.468508,127.029654 C172.47488,124.400809 173.734963,121.932714 175.860512,120.385812 L188.447368,111.134893 L183.709777,99.5572272 L168.263545,101.912007 C165.638191,102.313078 162.977653,101.450482 161.087074,99.5852603 L157.41474,95.9129257 C155.575027,94.0413392 154.714478,91.4182198 155.087993,88.8205544 L157.470806,73.3743228 L146.005273,68.5526316 Z" id="Combined-Shape" fill="#FFFFFF" fill-rule="nonzero"></path>
        <path d="M127.5,106 C114.521308,106 104,116.521308 104,129.5 C104,142.478692 114.521308,153 127.5,153 C140.478692,153 151,142.478692 151,129.5 C151,123.267412 148.524114,117.290096 144.117009,112.882991 C139.709904,108.475886 133.732588,106 127.5,106 Z" id="Path" stroke="#FFFFFF" stroke-width="10" fill-rule="nonzero"></path>
    </g>
</svg>