<svg width="160" height="16" viewBox="0 0 160 16" fill="none" xmlns="http://www.w3.org/2000/svg">
    <path d="M99.8659 1.7774V2.66723V3.55495V4.44478V5.33249V6.22232V7.11003V7.99986V8.88757V9.7774V10.6651V11.5549V12.4448L98.961 11.5549L98.0583 10.6651L97.1533 9.7774L96.2506 8.88757L95.3457 7.99986L94.4408 7.11003L93.538 6.22232L92.6331 5.33249L91.7303 4.44478L90.8254 3.55495L89.9227 2.66723L89.0178 1.7774H88.115H87.2101V2.66723V3.55495V4.44478V5.33249V6.22232V7.11003V7.99986V8.88757V9.7774V10.6651V11.5549V12.4448V13.3325V14.2223V15.11V15.9999H88.115H89.0178V15.11V14.2223V13.3325V12.4448V11.5549V10.6651V9.7774V8.88757V7.99986V7.11003V6.22232V5.33249V4.44478L89.9227 5.33249L90.8254 6.22232L91.7303 7.11003L92.6331 7.99986L93.538 8.88757L94.4408 9.7774L95.3457 10.6651L96.2506 11.5549L97.1533 12.4448L98.0583 13.3325L98.961 14.2223L99.8659 15.11L100.769 15.9999H101.674V15.11V14.2223V13.3325V12.4448V11.5549V10.6651V9.7774V8.88757V7.99986V7.11003V6.22232V5.33249V4.44478V3.55495V2.66723V1.7774H100.769H99.8659Z" fill="white" />
    <path d="M128.969 7.11215H127.162V1.7774H116.316V15.9999H130.781V7.10156H128.974L128.969 7.11215ZM118.123 6.22231V3.55071H125.354V7.10791H118.123V6.22231ZM128.969 9.7774V14.2266H118.123V8.88969H128.969V9.7774Z" fill="white" />
    <path d="M158.965 7.11229H156.255V1.77754H145.407V0H143.599V1.77754H145.407V16H159.868V7.1017L158.965 7.11229ZM147.214 6.22246V3.55085H154.447V7.10805H147.214V6.22246ZM158.063 9.77754V14.2267H147.214V8.88983H158.063V9.77754Z" fill="white" />
    <path d="M70.8833 1.7774H70.8789H69.9783H69.0756H68.1707H67.2679H66.363H65.4602H64.5553H63.6526H62.7477H61.8449H60.94H60.0351H59.1323H58.2274V2.66723V3.55495V4.44478V5.33249V6.22232V7.11003V7.99986V8.88757V9.7774V10.6651V11.5549V12.4448V13.3325V14.2223V15.11V15.9999H59.1323H60.0351H60.94H61.8449H62.7477H63.6526H64.5553H65.4602H66.363H67.2679H68.1707H69.0756H69.9783H70.8789H70.8833H71.7839H72.6866V15.11V14.2223H71.7839H70.8833H70.8789H69.9783H69.0756H68.1707H67.2679H66.363H65.4602H64.5553H63.6526H62.7477H61.8449H60.94H60.0351V13.3325V12.4448V11.5549V10.6651H60.94H61.8449H62.7477H63.6526H64.5553H65.4602H66.363H67.2679H68.1664H68.1707H69.0713H69.974H70.8789V9.7774V8.88757H69.974H69.0713H68.1707H68.1664H67.2679H66.363H65.4602H64.5553H63.6526H62.7477H61.8449H60.94H60.0351V7.99986V7.11003V6.22232V5.33249V4.44478V3.55495H60.94H61.8449H62.7477H63.6526H64.5553H65.4602H66.363H67.2679H68.1707H69.0756H69.9783H70.8789H70.8833H71.7839H72.6866V2.66723V1.7774H71.7839H70.8833Z" fill="white" />
    <path d="M12.6537 1.77742H0V15.9999H14.4635V1.77742H12.6558H12.6537ZM12.6537 4.44479V14.2223H1.80549V3.55072H12.6537V4.44479Z" fill="white" />
    <path d="M41.7852 1.77743H29.1315V15.9999H30.9392V10.6673H43.5929V1.76895H41.7852V1.77743ZM41.7852 4.44479V8.89394H30.9392V3.55073H41.7852V4.44479Z" fill="white" />
</svg>
    