<!-- Generated by IcoMoon.io -->
<svg version="1.1" xmlns="http://www.w3.org/2000/svg" width="32" height="32" viewBox="0 0 28 28">
<title>bitbucket</title>
<path d="M15.905 13.355c0.189 1.444-1.564 2.578-2.784 1.839-1.375-0.602-1.375-2.784-0.034-3.403 1.151-0.705 2.818 0.223 2.818 1.564zM17.812 12.994c-0.309-2.44-3.076-4.056-5.328-3.042-1.426 0.636-2.389 2.148-2.32 3.747 0.086 2.097 2.080 3.815 4.176 3.626s3.729-2.234 3.472-4.331zM21.92 3.679c-0.756-0.997-2.045-1.169-3.179-1.358-3.214-0.516-6.513-0.533-9.727 0.034-1.066 0.172-2.269 0.361-2.939 1.323 1.1 1.031 2.664 1.186 4.073 1.358 2.544 0.327 5.156 0.344 7.699 0.017 1.426-0.172 3.008-0.309 4.073-1.375zM22.899 21.467c-0.481 1.684-0.206 3.953-1.994 4.932-3.076 1.701-6.806 1.89-10.191 1.289-1.787-0.327-3.884-0.894-4.864-2.578-0.43-1.65-0.705-3.334-0.98-5.018l0.103-0.275 0.309-0.155c5.121 3.386 12.288 3.386 17.427 0 0.808 0.241 0.206 1.22 0.189 1.805zM26.010 4.951c-0.584 3.764-1.255 7.51-1.908 11.257-0.189 1.1-1.255 1.719-2.148 2.183-3.214 1.615-6.96 1.89-10.483 1.512-2.389-0.258-4.829-0.894-6.771-2.389-0.911-0.705-0.911-1.908-1.083-2.922-0.602-3.523-1.289-7.046-1.719-10.604 0.206-1.547 1.942-2.217 3.231-2.698 1.719-0.636 3.557-0.928 5.379-1.1 3.884-0.378 7.854-0.241 11.618 0.859 1.341 0.395 2.784 0.945 3.695 2.097 0.412 0.533 0.275 1.203 0.189 1.805z"></path>
</svg>
