<!-- Generated by IcoMoon.io -->
<svg version="1.1" xmlns="http://www.w3.org/2000/svg" width="32" height="32" viewBox="0 0 28 28">
<title>cloud_off</title>
<path d="M9.023 10.5h-2.023q-1.914 0-3.281 1.395t-1.367 3.309 1.367 3.281 3.281 1.367h11.375zM3.5 4.976l1.477-1.477 19.523 19.523-1.477 1.477-2.352-2.297h-13.672q-2.898 0-4.949-2.051t-2.051-4.949q0-2.844 1.969-4.867t4.758-2.133zM22.586 10.554q2.242 0.164 3.828 1.832t1.586 3.965q0 3.008-2.461 4.758l-1.695-1.695q1.805-0.984 1.805-3.063 0-1.422-1.039-2.461t-2.461-1.039h-1.75v-0.602q0-2.68-1.859-4.539t-4.539-1.859q-1.531 0-2.953 0.711l-1.75-1.695q2.133-1.367 4.703-1.367 2.953 0 5.496 2.078t3.090 4.977z"></path>
</svg>
