<!-- Generated by IcoMoon.io -->
<svg version="1.1" xmlns="http://www.w3.org/2000/svg" width="32" height="32" viewBox="0 0 28 28">
<title>code</title>
<path d="M9.917 24.5c0-0.966-0.784-1.75-1.75-1.75s-1.75 0.784-1.75 1.75 0.784 1.75 1.75 1.75 1.75-0.784 1.75-1.75zM9.917 3.5c0-0.966-0.784-1.75-1.75-1.75s-1.75 0.784-1.75 1.75 0.784 1.75 1.75 1.75 1.75-0.784 1.75-1.75zM21.583 5.833c0-0.966-0.784-1.75-1.75-1.75s-1.75 0.784-1.75 1.75 0.784 1.75 1.75 1.75 1.75-0.784 1.75-1.75zM23.333 5.833c0 1.294-0.711 2.424-1.75 3.026-0.055 6.581-4.721 8.039-7.82 9.023-2.898 0.911-3.846 1.349-3.846 3.117v0.474c1.039 0.602 1.75 1.732 1.75 3.026 0 1.932-1.568 3.5-3.5 3.5s-3.5-1.568-3.5-3.5c0-1.294 0.711-2.424 1.75-3.026v-14.947c-1.039-0.602-1.75-1.732-1.75-3.026 0-1.932 1.568-3.5 3.5-3.5s3.5 1.568 3.5 3.5c0 1.294-0.711 2.424-1.75 3.026v9.060c0.93-0.456 1.914-0.766 2.807-1.039 3.391-1.075 5.323-1.878 5.359-5.687-1.039-0.602-1.75-1.732-1.75-3.026 0-1.932 1.568-3.5 3.5-3.5s3.5 1.568 3.5 3.5z"></path>
</svg>
