<!-- Generated by IcoMoon.io -->
<svg version="1.1" xmlns="http://www.w3.org/2000/svg" width="32" height="32" viewBox="0 0 32 32">
<title>date</title>
<path d="M27.192 28.844v-17.652h-22.384v17.652h22.384zM27.192 3.155q1.277 0 2.253 0.976t0.976 2.253v22.459q0 1.277-0.976 2.216t-2.253 0.939h-22.384q-1.352 0-2.291-0.901t-0.939-2.253v-22.459q0-1.277 0.939-2.253t2.291-0.976h1.577v-3.155h3.23v3.155h12.769v-3.155h3.23v3.155h1.577zM24.037 14.422v3.155h-3.23v-3.155h3.23zM17.577 14.422v3.155h-3.155v-3.155h3.155zM11.193 14.422v3.155h-3.23v-3.155h3.23z"></path>
</svg>
