<!-- Generated by IcoMoon.io -->
<svg version="1.1" xmlns="http://www.w3.org/2000/svg" width="32" height="32" viewBox="0 0 28 28">
<title>git</title>
<path d="M27.472 12.753l-12.225-12.224c-0.704-0.704-1.846-0.704-2.55 0l-2.84 2.84 2.137 2.137c0.343-0.164 0.726-0.256 1.132-0.256 1.45 0 2.625 1.175 2.625 2.625 0 0.405-0.092 0.789-0.256 1.132l3.499 3.499c0.343-0.164 0.726-0.256 1.132-0.256 1.45 0 2.625 1.175 2.625 2.625s-1.175 2.625-2.625 2.625-2.625-1.175-2.625-2.625c0-0.405 0.092-0.789 0.256-1.132l-3.499-3.499c-0.083 0.040-0.169 0.075-0.257 0.106v7.3c1.019 0.36 1.75 1.332 1.75 2.475 0 1.45-1.175 2.625-2.625 2.625s-2.625-1.175-2.625-2.625c0-1.143 0.731-2.115 1.75-2.475v-7.3c-1.019-0.36-1.75-1.332-1.75-2.475 0-0.405 0.092-0.789 0.256-1.132l-2.137-2.137-8.090 8.090c-0.704 0.705-0.704 1.847 0 2.551l12.225 12.224c0.704 0.704 1.845 0.704 2.55 0l12.168-12.168c0.704-0.704 0.704-1.847-0-2.551z"></path>
</svg>
