<!-- Generated by IcoMoon.io -->
<svg version="1.1" xmlns="http://www.w3.org/2000/svg" width="32" height="32" viewBox="0 0 32 32">
<title>github</title>
<path d="M16 0.394c8.833 0 15.999 7.166 15.999 15.999 0 7.062-4.583 13.062-10.937 15.187-0.813 0.146-1.104-0.354-1.104-0.771 0-0.521 0.021-2.25 0.021-4.396 0-1.5-0.5-2.458-1.083-2.958 3.562-0.396 7.312-1.75 7.312-7.896 0-1.75-0.625-3.167-1.646-4.291 0.167-0.417 0.708-2.042-0.167-4.25-1.333-0.417-4.396 1.646-4.396 1.646-1.271-0.354-2.646-0.542-4-0.542s-2.729 0.187-4 0.542c0 0-3.062-2.062-4.396-1.646-0.875 2.208-0.333 3.833-0.167 4.25-1.021 1.125-1.646 2.542-1.646 4.291 0 6.125 3.729 7.5 7.291 7.896-0.458 0.417-0.875 1.125-1.021 2.146-0.917 0.417-3.25 1.125-4.646-1.333-0.875-1.521-2.458-1.646-2.458-1.646-1.562-0.021-0.104 0.979-0.104 0.979 1.042 0.479 1.771 2.333 1.771 2.333 0.938 2.854 5.396 1.896 5.396 1.896 0 1.333 0.021 2.583 0.021 2.979 0 0.417-0.292 0.917-1.104 0.771-6.354-2.125-10.937-8.125-10.937-15.187 0-8.833 7.166-15.999 15.999-15.999zM6.063 23.372c0.042-0.083-0.021-0.187-0.146-0.25-0.125-0.042-0.229-0.021-0.271 0.042-0.042 0.083 0.021 0.187 0.146 0.25 0.104 0.062 0.229 0.042 0.271-0.042zM6.709 24.081c0.083-0.062 0.062-0.208-0.042-0.333-0.104-0.104-0.25-0.146-0.333-0.062-0.083 0.062-0.062 0.208 0.042 0.333 0.104 0.104 0.25 0.146 0.333 0.062zM7.334 25.018c0.104-0.083 0.104-0.25 0-0.396-0.083-0.146-0.25-0.208-0.354-0.125-0.104 0.062-0.104 0.229 0 0.375s0.271 0.208 0.354 0.146zM8.209 25.893c0.083-0.083 0.042-0.271-0.083-0.396-0.146-0.146-0.333-0.167-0.417-0.062-0.104 0.083-0.062 0.271 0.083 0.396 0.146 0.146 0.333 0.167 0.417 0.062zM9.396 26.414c0.042-0.125-0.083-0.271-0.271-0.333-0.167-0.042-0.354 0.021-0.396 0.146s0.083 0.271 0.271 0.312c0.167 0.062 0.354 0 0.396-0.125zM10.709 26.518c0-0.146-0.167-0.25-0.354-0.229-0.187 0-0.333 0.104-0.333 0.229 0 0.146 0.146 0.25 0.354 0.229 0.187 0 0.333-0.104 0.333-0.229zM11.917 26.31c-0.021-0.125-0.187-0.208-0.375-0.187-0.187 0.042-0.312 0.167-0.292 0.312 0.021 0.125 0.187 0.208 0.375 0.167s0.312-0.167 0.292-0.292z"></path>
</svg>
