<!-- Generated by IcoMoon.io -->
<svg version="1.1" xmlns="http://www.w3.org/2000/svg" width="32" height="32" viewBox="0 0 32 32">
<title>link</title>
<path d="M24.037 7.963q3.305 0 5.634 2.366t2.329 5.671-2.329 5.671-5.634 2.366h-6.46v-3.080h6.46q2.028 0 3.493-1.465t1.465-3.493-1.465-3.493-3.493-1.465h-6.46v-3.080h6.46zM9.615 17.578v-3.155h12.77v3.155h-12.77zM3.005 16q0 2.028 1.465 3.493t3.493 1.465h6.46v3.080h-6.46q-3.305 0-5.634-2.366t-2.329-5.671 2.329-5.671 5.634-2.366h6.46v3.080h-6.46q-2.028 0-3.493 1.465t-1.465 3.493z"></path>
</svg>
