<!-- Generated by IcoMoon.io -->
<svg version="1.1" xmlns="http://www.w3.org/2000/svg" width="32" height="32" viewBox="0 0 32 32">
<title>search</title>
<path d="M11.925 20.161q3.432 0 5.834-2.402t2.402-5.834-2.402-5.834-5.834-2.402-5.834 2.402-2.402 5.834 2.402 5.834 5.834 2.402zM22.906 20.161l9.094 9.094-2.745 2.745-9.094-9.094v-1.458l-0.515-0.515q-3.26 2.831-7.721 2.831-4.976 0-8.45-3.432t-3.474-8.407 3.474-8.45 8.45-3.474 8.407 3.474 3.432 8.45q0 1.802-0.858 4.075t-1.973 3.646l0.515 0.515h1.458z"></path>
</svg>
