<!-- Generated by IcoMoon.io -->
<svg version="1.1" xmlns="http://www.w3.org/2000/svg" width="32" height="32" viewBox="0 0 28 28">
<title>tags</title>
<path d="M6.606 7.549c0-1.047-0.84-1.887-1.887-1.887s-1.887 0.84-1.887 1.887 0.84 1.887 1.887 1.887 1.887-0.84 1.887-1.887zM22.338 16.042c0 0.501-0.206 0.988-0.546 1.327l-7.239 7.254c-0.354 0.339-0.84 0.546-1.342 0.546s-0.988-0.206-1.327-0.546l-10.542-10.557c-0.752-0.737-1.342-2.167-1.342-3.214v-6.134c0-1.032 0.855-1.887 1.887-1.887h6.134c1.047 0 2.477 0.59 3.229 1.342l10.542 10.527c0.339 0.354 0.546 0.84 0.546 1.342zM27.999 16.042c0 0.501-0.206 0.988-0.546 1.327l-7.239 7.254c-0.354 0.339-0.84 0.546-1.342 0.546-0.767 0-1.15-0.354-1.651-0.87l6.93-6.93c0.339-0.339 0.546-0.826 0.546-1.327s-0.206-0.988-0.546-1.342l-10.542-10.527c-0.752-0.752-2.182-1.342-3.229-1.342h3.303c1.047 0 2.477 0.59 3.229 1.342l10.542 10.527c0.339 0.354 0.546 0.84 0.546 1.342z"></path>
</svg>
